<svg xmlns="http://www.w3.org/2000/svg" width="1440" height="298" viewBox="0 0 1440 298">
  <g fill="none" fill-rule="evenodd">
    <circle cx="113.5" cy="298.5" r="113.5" fill="#FFF"/>
    <circle cx="358.5" cy="403.5" r="113.5" fill="#FFF"/>
    <circle cx="245.5" cy="277.5" r="72.5" fill="#FFF"/>
    <circle cx="95.5" cy="118.5" r="28.5" fill="#FFF"/>
    <circle cx="173.5" cy="134.5" r="14.5" fill="#FFF"/>
    <circle cx="650.5" cy="90.5" r="20.5" fill="#FFF"/>
    <circle cx="999.5" cy="72.5" r="20.5" fill="#FFF"/>
    <circle cx="1192.5" cy="147.5" r="20.5" fill="#FFF"/>
    <circle cx="1268.5" cy="127.5" r="11.5" fill="#FFF"/>
    <circle cx="967.5" cy="116.5" r="11.5" fill="#FFF"/>
    <circle cx="690.5" cy="52.5" r="11.5" fill="#FFF"/>
    <circle cx="552.5" cy="96.5" r="8.5" fill="#FFF"/>
    <circle cx="281.5" cy="101.5" r="8.5" fill="#FFF"/>
    <circle cx="1406.5" cy="122.5" r="11.5" fill="#FFF"/>
    <circle cx="532.5" cy="226.5" r="72.5" fill="#FFF"/>
    <circle cx="394.5" cy="277.5" r="113.5" fill="#FFF"/>
    <circle cx="621.5" cy="318.5" r="113.5" fill="#FFF"/>
    <circle cx="771.5" cy="260.5" r="113.5" fill="#FFF"/>
    <circle cx="885.5" cy="298.5" r="113.5" fill="#FFF"/>
    <circle cx="1086.5" cy="277.5" r="113.5" fill="#FFF"/>
    <circle cx="1233.5" cy="298.5" r="113.5" fill="#FFF"/>
    <circle cx="1326.5" cy="289.5" r="113.5" fill="#FFF"/>
  </g>
</svg>
