<svg xmlns="http://www.w3.org/2000/svg" viewBox="0 0 336.97 288.88"><defs><style>.cls-1{fill:#9f2321;}.cls-2{fill:#cb6566;}.cls-3{fill:#a75454;}.cls-4{fill:#c7292c;}.cls-5,.cls-6,.cls-7{fill:none;}.cls-19,.cls-22,.cls-27,.cls-34,.cls-5{stroke:#000;}.cls-19,.cls-22,.cls-27,.cls-34,.cls-5,.cls-6,.cls-7{stroke-miterlimit:10;}.cls-19,.cls-22,.cls-27,.cls-34,.cls-5,.cls-7{stroke-width:2px;}.cls-6,.cls-7{stroke:#fff;stroke-linecap:round;}.cls-14,.cls-8,.cls-9{fill:#fff;}.cls-9{font-size:18px;}.cls-14,.cls-9{font-family:Quicksand-Bold, Quicksand;font-weight:700;}.cls-10{letter-spacing:0em;}.cls-11{letter-spacing:-0.02em;}.cls-12{letter-spacing:-0.02em;}.cls-13{letter-spacing:-0.04em;}.cls-14{font-size:13.15px;}.cls-15{letter-spacing:-0.05em;}.cls-16{letter-spacing:-0.02em;}.cls-17{fill:#fcdc75;}.cls-18,.cls-19{fill:#cb9932;}.cls-20{fill:#61a799;}.cls-21{fill:#559286;}.cls-22{fill:#538e82;}.cls-23{letter-spacing:-0.02em;}.cls-24{letter-spacing:-0.04em;}.cls-25{fill:#d87a3a;}.cls-26{fill:#a6602c;}.cls-27{fill:#ab632d;}.cls-28{letter-spacing:-0.03em;}.cls-29{letter-spacing:0em;}.cls-30{letter-spacing:-0.01em;}.cls-31{letter-spacing:-0.01em;}.cls-32{fill:#2494c7;}.cls-33{fill:#2280aa;}.cls-34{fill:#1e7094;}.cls-35{letter-spacing:-0.02em;}.cls-36{letter-spacing:0.01em;}.cls-37{letter-spacing:-0.07em;}.cls-38{letter-spacing:-0.04em;}</style></defs><title>5pillars_1</title><g id="Layer_2" data-name="Layer 2"><g id="Layer_1-2" data-name="Layer 1"><rect class="cls-1" x="6.77" y="120.34" width="321.32" height="4.94"/><polygon class="cls-2" points="325.37 103.05 167.43 1.58 9.49 103.05 325.37 103.05"/><polygon class="cls-3" points="325.6 103.05 167.66 1.58 229.45 103.05 325.6 103.05"/><rect class="cls-4" x="6.77" y="102.41" width="321.32" height="22.88"/><rect class="cls-5" x="7.23" y="102.86" width="320.86" height="22.42"/><polygon class="cls-5" points="325.12 102.66 167.18 1.19 9.24 102.66 325.12 102.66"/><line class="cls-6" x1="120.48" y1="39.03" x2="157.32" y2="15.44"/><line class="cls-7" x1="14.32" y1="106.66" x2="42.31" y2="106.66"/><circle class="cls-8" cx="47.71" cy="106.66" r="0.86"/><circle class="cls-8" cx="116.29" cy="41.71" r="0.91"/><text class="cls-9" transform="translate(117.2 118.24)"><tspan class="cls-10">S</tspan><tspan class="cls-11" x="11.92" y="0">t</tspan><tspan class="cls-12" x="18.85" y="0">o</tspan><tspan x="29.74" y="0">ry</tspan><tspan class="cls-13" x="48.22" y="0">t</tspan><tspan x="54.7" y="0">elling</tspan></text><text class="cls-14" transform="translate(28.27 159.14) rotate(90)">B<tspan class="cls-15" x="7.81" y="0">r</tspan><tspan x="12.92" y="0">ein</tspan><tspan class="cls-16" x="32.68" y="0">k</tspan><tspan x="39.71" y="0">ennis</tspan></text><rect class="cls-17" x="9.24" y="125.29" width="48.24" height="155.15"/><rect class="cls-18" x="47.71" y="126.09" width="9.37" height="153.54"/><rect class="cls-5" x="9.24" y="125.29" width="48.24" height="155.15"/><rect class="cls-19" x="1" y="280.44" width="64.94" height="7.44"/><line class="cls-6" x1="3.77" y1="282.77" x2="17" y2="282.77"/><line class="cls-7" x1="14.32" y1="130.97" x2="14.32" y2="263.35"/><circle class="cls-8" cx="14.32" cy="274.98" r="1.26"/><text class="cls-14" transform="translate(28.27 157.36) rotate(90)">B<tspan class="cls-15" x="7.81" y="0">r</tspan><tspan x="12.92" y="0">ein</tspan><tspan class="cls-16" x="32.68" y="0">k</tspan><tspan x="39.71" y="0">ennis</tspan></text><rect class="cls-20" x="96.74" y="125.09" width="48.24" height="155.15"/><rect class="cls-21" x="135.2" y="125.9" width="9.37" height="153.54"/><rect class="cls-5" x="96.74" y="125.09" width="48.24" height="155.15"/><rect class="cls-22" x="88.5" y="280.25" width="64.94" height="7.44"/><line class="cls-6" x1="91.26" y1="282.58" x2="104.5" y2="282.58"/><line class="cls-7" x1="101.58" y1="134.43" x2="101.58" y2="255.75"/><circle class="cls-8" cx="101.58" cy="261.92" r="1.24"/><text class="cls-14" transform="translate(115.66 167.86) rotate(90)">Mi<tspan class="cls-23" x="14.79" y="0">n</tspan><tspan x="22.58" y="0">ds</tspan><tspan class="cls-24" x="37.73" y="0">e</tspan><tspan x="45.21" y="0">t</tspan></text><rect class="cls-25" x="186.63" y="125.29" width="48.24" height="155.15"/><rect class="cls-26" x="225.09" y="126.09" width="9.37" height="153.54"/><rect class="cls-5" x="186.63" y="125.29" width="48.24" height="155.15"/><rect class="cls-27" x="178.38" y="280.44" width="64.94" height="7.44"/><line class="cls-6" x1="181.15" y1="282.77" x2="194.38" y2="282.77"/><line class="cls-7" x1="191.71" y1="132.69" x2="191.71" y2="266.36"/><circle class="cls-8" cx="191.71" cy="273.72" r="1.26"/><text class="cls-14" transform="translate(213.54 155.72) rotate(90)">Mi<tspan class="cls-23" x="14.79" y="0">n</tspan><tspan x="22.58" y="0">df</tspan><tspan class="cls-28" x="36.02" y="0">u</tspan><tspan class="cls-29" x="43.67" y="0">lnes</tspan><tspan x="0" y="15.78">en </tspan><tspan class="cls-30" x="20.01" y="15.78">C</tspan><tspan x="30.01" y="15.78">ompa</tspan><tspan class="cls-31" x="67.54" y="15.78">s</tspan><tspan x="73.88" y="15.78">sie</tspan></text><rect class="cls-32" x="279.27" y="125.29" width="48.24" height="155.15"/><rect class="cls-33" x="317.73" y="126.09" width="9.37" height="153.54"/><rect class="cls-5" x="279.27" y="125.29" width="48.24" height="155.15"/><rect class="cls-34" x="271.02" y="280.44" width="64.94" height="7.44"/><line class="cls-6" x1="273.79" y1="282.77" x2="287.02" y2="282.77"/><line class="cls-7" x1="284.35" y1="139.49" x2="284.35" y2="272.46"/><circle class="cls-8" cx="284.35" cy="133.22" r="1.4"/><text class="cls-14" transform="translate(297.76 150.22) rotate(90)"><tspan class="cls-30">L</tspan><tspan x="7.27" y="0">e</tspan><tspan class="cls-35" x="15.28" y="0">e</tspan><tspan x="23.01" y="0">r</tspan><tspan class="cls-36" x="28.78" y="0">s</tspan><tspan class="cls-37" x="35.44" y="0">t</tspan><tspan class="cls-16" x="39.78" y="0">r</tspan><tspan x="45.22" y="0">a</tspan><tspan class="cls-38" x="53.36" y="0">t</tspan><tspan x="58.09" y="0">egieën</tspan></text></g></g></svg>