<svg xmlns="http://www.w3.org/2000/svg" viewBox="0 0 357.1 331.2"><defs><style>.cls-1,.cls-12,.cls-3,.cls-36,.cls-45{fill:#fff;}.cls-1,.cls-15,.cls-21,.cls-23,.cls-24,.cls-26,.cls-29,.cls-41,.cls-42,.cls-45,.cls-46,.cls-47,.cls-50,.cls-54,.cls-55,.cls-8,.cls-9{stroke:#000;}.cls-1,.cls-10,.cls-11,.cls-15,.cls-21,.cls-22,.cls-23,.cls-24,.cls-25,.cls-26,.cls-29,.cls-41,.cls-42,.cls-44,.cls-45,.cls-46,.cls-47,.cls-50,.cls-54,.cls-55,.cls-8,.cls-9{stroke-miterlimit:10;}.cls-1,.cls-11,.cls-15,.cls-21,.cls-22,.cls-23,.cls-24,.cls-25,.cls-26,.cls-29,.cls-41,.cls-42,.cls-47,.cls-50,.cls-54,.cls-55,.cls-8,.cls-9{stroke-width:2px;}.cls-2{fill:#f4e72b;}.cls-3{font-size:13.15px;}.cls-3,.cls-36{font-family:Quicksand-Bold, Quicksand;font-weight:700;}.cls-4{letter-spacing:-0.05em;}.cls-5{letter-spacing:-0.02em;}.cls-6{fill:#fcdc75;}.cls-7,.cls-9{fill:#cb9932;}.cls-10,.cls-11,.cls-22,.cls-25,.cls-44,.cls-8{fill:none;}.cls-10,.cls-11{stroke:#fff;stroke-linecap:round;}.cls-13{fill:#2494c7;}.cls-14{fill:#2280aa;}.cls-15{fill:#1e7094;}.cls-16{letter-spacing:-0.01em;}.cls-17{letter-spacing:-0.02em;}.cls-18{letter-spacing:0.01em;}.cls-19{letter-spacing:-0.07em;}.cls-20{letter-spacing:-0.04em;}.cls-21{fill:#29abe2;}.cls-22{stroke:#29abe2;}.cls-23,.cls-32{fill:#2e3192;}.cls-24{fill:#f15a24;}.cls-25{stroke:#1b1464;}.cls-26{fill:#1b1464;}.cls-27{fill:#61a799;}.cls-28{fill:#559286;}.cls-29{fill:#538e82;}.cls-30{letter-spacing:-0.02em;}.cls-31{letter-spacing:-0.04em;}.cls-33{fill:#cb6566;}.cls-34{fill:#a75454;}.cls-35{fill:#c7292c;}.cls-36{font-size:18px;}.cls-37{letter-spacing:0em;}.cls-38{letter-spacing:-0.02em;}.cls-39{letter-spacing:-0.02em;}.cls-40{letter-spacing:-0.04em;}.cls-41{fill:#399;}.cls-42{fill:#2e3dff;}.cls-43{fill:#c03;}.cls-44{stroke:#c03;}.cls-46{fill:#630;}.cls-47{fill:#300;}.cls-48{fill:#d87a3a;}.cls-49{fill:#a6602c;}.cls-50{fill:#ab632d;}.cls-51{letter-spacing:-0.03em;}.cls-52{letter-spacing:0em;}.cls-53{letter-spacing:-0.01em;}.cls-55{fill:#c00;}</style></defs><title>5pillars</title><g id="Layer_2" data-name="Layer 2"><g id="Layer_1-2" data-name="Layer 1"><circle class="cls-1" cx="62.85" cy="251.57" r="8.83"/><path class="cls-1" d="M64.52,248.47a8.8,8.8,0,0,1-7.38-1.76,8.07,8.07,0,0,1-.9-.85,7.7,7.7,0,0,0-.83.88,8.83,8.83,0,0,0,13.74,11.08l.12-.16a9.1,9.1,0,0,1-1.57-1A8.8,8.8,0,0,1,64.52,248.47Z"/><path class="cls-2" d="M64.74,248.12a8.8,8.8,0,0,1,1.74-4.07,8.84,8.84,0,0,0-10,1.46,9,9,0,0,0,.9.85A8.78,8.78,0,0,0,64.74,248.12Z"/><path class="cls-2" d="M69,245.91a8.73,8.73,0,0,1-4.21,2.21,8.82,8.82,0,0,0,3.19,8.18,8.22,8.22,0,0,0,1.57,1A8.83,8.83,0,0,0,69,245.91Z"/><path class="cls-2" d="M66.48,244.05a8.8,8.8,0,0,0-1.74,4.07A8.73,8.73,0,0,0,69,245.91a10.38,10.38,0,0,0-.9-.85A9.5,9.5,0,0,0,66.48,244.05Z"/><text class="cls-3" transform="translate(28.27 201.45) rotate(90)">B<tspan class="cls-4" x="7.81" y="0">r</tspan><tspan x="12.92" y="0">ein</tspan><tspan class="cls-5" x="32.68" y="0">k</tspan><tspan x="39.71" y="0">ennis</tspan></text><rect class="cls-6" x="9.24" y="167.6" width="48.24" height="155.15"/><rect class="cls-7" x="47.71" y="168.41" width="9.37" height="153.54"/><rect class="cls-8" x="9.24" y="167.6" width="48.24" height="155.15"/><rect class="cls-9" x="1" y="322.75" width="64.94" height="7.44"/><line class="cls-10" x1="3.77" y1="325.08" x2="17" y2="325.08"/><line class="cls-11" x1="14.32" y1="173.28" x2="14.32" y2="305.66"/><circle class="cls-12" cx="14.32" cy="317.29" r="1.26"/><text class="cls-3" transform="translate(28.27 199.67) rotate(90)">B<tspan class="cls-4" x="7.81" y="0">r</tspan><tspan x="12.92" y="0">ein</tspan><tspan class="cls-5" x="32.68" y="0">k</tspan><tspan x="39.71" y="0">ennis</tspan></text><ellipse class="cls-1" cx="57.69" cy="271.77" rx="3.67" ry="5.57"/><rect class="cls-13" x="279.27" y="167.6" width="48.24" height="155.15"/><rect class="cls-14" x="317.73" y="168.41" width="9.37" height="153.54"/><rect class="cls-8" x="279.27" y="167.6" width="48.24" height="155.15"/><rect class="cls-15" x="271.02" y="322.75" width="64.94" height="7.44"/><line class="cls-10" x1="273.79" y1="325.08" x2="287.02" y2="325.08"/><line class="cls-11" x1="284.35" y1="181.8" x2="284.35" y2="314.77"/><circle class="cls-12" cx="284.35" cy="175.53" r="1.4"/><text class="cls-3" transform="translate(297.76 192.54) rotate(90)"><tspan class="cls-16">L</tspan><tspan x="7.27" y="0">e</tspan><tspan class="cls-17" x="15.28" y="0">e</tspan><tspan x="23.01" y="0">r</tspan><tspan class="cls-18" x="28.78" y="0">s</tspan><tspan class="cls-19" x="35.44" y="0">t</tspan><tspan class="cls-5" x="39.78" y="0">r</tspan><tspan x="45.22" y="0">a</tspan><tspan class="cls-20" x="53.36" y="0">t</tspan><tspan x="58.09" y="0">egieën</tspan></text><polygon class="cls-1" points="334.51 218.85 335.97 210.69 355.23 206.13 344.87 226.49 334.51 218.85"/><polygon class="cls-21" points="344.87 213.4 341.42 216.31 335.97 210.69 342.53 209.13 344.87 213.4"/><path class="cls-1" d="M332.33,223.58s8.43-.12,8.09-.37,8.63,9.43,8.63,9.43-13.08,12-14.54,18.21-7-16.71-7-16.71Z"/><polygon class="cls-1" points="333.37 244.56 316.19 253.34 305.88 266.02 321.48 276.22 326.56 259.12 335.73 249.93 333.37 244.56"/><polygon class="cls-21" points="309.12 262.04 322.41 272.1 321.48 276.22 305.88 266.02 309.12 262.04"/><path class="cls-22" d="M329.76,239s6.21-3.19,9.5-6.38"/><path class="cls-1" d="M338.28,226.49l-13.95-3.29-4.72-8.35-5.09,1.46v4.55l3.21,2.34,4.68,3.29,15.87,6.15S342.05,234.12,338.28,226.49Z"/><path class="cls-23" d="M150.52,249.22s-3.05-16.63,5.42-14.58c8.64,2.09-2.54,15.84-2.54,15.84Z"/><path class="cls-24" d="M147.62,248.68,162,251.34l5.06,8.71L153.71,272.1s-1.83-2.93-4.49-2.93a5.26,5.26,0,0,0-4,1.6l-.41-22.09Z"/><path class="cls-24" d="M145.25,234.14l4.23-1.5,5.12,4.8,9.26-2.09,2.09,4s-6.79,12.7-14,11.53C145.52,249.79,145.25,234.14,145.25,234.14Z"/><path class="cls-25" d="M144.84,248.68s2.4,4.95,7.08,4.8a12.13,12.13,0,0,0,7.41-2.63"/><polygon class="cls-24" points="163.28 253.56 170.34 253.56 173.05 262.7 165.95 264.58 163.28 263.46 163.28 253.56"/><path class="cls-26" d="M153.71,272.1v9.84h-8.46V270.77s0-1.6,4-1.6S153.71,272.1,153.71,272.1Z"/><path class="cls-24" d="M145.25,281.94h8.46s4.83,8,5.36,9.32,2.13,11.91,2.13,11.91l2.66,15.5s4,1.93,4.52,2-11.56,1-11.56,1l1.18-4.1s-4.79-16.14-5.32-19.11-3.2-9.09-3.2-9.09l-1.86,10.37v16.47l1.86,4.46h-6.91Z"/><polyline class="cls-25" points="145.25 289.84 150.52 291.91 155.94 287.78"/><path class="cls-24" d="M150.53,298c-.28-.83,6.56-6.76,6.56-6.76l7.1,8.46-3.31,11.78Z"/><path class="cls-24" d="M167.05,272.1c-.05-.42-2.22-5.43,1.12-10s11.15-11.22,11.15-11.22-3.61,21.25-7.94,21.25Z"/><polygon class="cls-24" points="175.56 253.56 171.17 247.07 175.56 248.68 176.81 237.44 179.32 243.93 184.18 241.69 184.18 247.07 179.32 253.56 175.56 253.56"/><path class="cls-25" d="M142.57,262a26.06,26.06,0,0,1,9.35,0,11.1,11.1,0,0,1,7.23,5.15"/><rect class="cls-27" x="96.74" y="167.41" width="48.24" height="155.15"/><rect class="cls-28" x="135.2" y="168.22" width="9.37" height="153.54"/><rect class="cls-8" x="96.74" y="167.41" width="48.24" height="155.15"/><rect class="cls-29" x="88.5" y="322.56" width="64.94" height="7.44"/><line class="cls-10" x1="91.26" y1="324.89" x2="104.5" y2="324.89"/><line class="cls-11" x1="101.58" y1="176.74" x2="101.58" y2="298.06"/><circle class="cls-12" cx="101.58" cy="304.23" r="1.24"/><text class="cls-3" transform="translate(115.66 210.18) rotate(90)">Mi<tspan class="cls-30" x="14.79" y="0">n</tspan><tspan x="22.58" y="0">ds</tspan><tspan class="cls-31" x="37.73" y="0">e</tspan><tspan x="45.21" y="0">t</tspan></text><path class="cls-25" d="M167.05,272.1a22,22,0,0,1,6-9.4c4.76-4.53,4-1.59,4-1.59"/><circle class="cls-12" cx="150.52" cy="256.78" r="2.12"/><circle class="cls-32" cx="150.52" cy="240.61" r="1.88"/><circle class="cls-32" cx="157.82" cy="242.49" r="1.88"/><polygon class="cls-33" points="326.11 145.92 168.17 44.45 10.23 145.92 326.11 145.92"/><polygon class="cls-34" points="326.34 145.92 168.4 44.45 230.19 145.92 326.34 145.92"/><rect class="cls-35" x="7.51" y="145.27" width="321.32" height="22.88"/><rect class="cls-8" x="7.97" y="145.73" width="320.86" height="22.42"/><polygon class="cls-8" points="325.86 145.53 167.92 44.05 9.98 145.53 325.86 145.53"/><line class="cls-10" x1="158.05" y1="58.3" x2="121.21" y2="81.89"/><line class="cls-11" x1="15.06" y1="149.53" x2="43.05" y2="149.53"/><circle class="cls-12" cx="48.44" cy="149.53" r="0.86"/><circle class="cls-12" cx="117.03" cy="84.57" r="0.91"/><text class="cls-36" transform="translate(117.94 161.11)"><tspan class="cls-37">S</tspan><tspan class="cls-38" x="11.92" y="0">t</tspan><tspan class="cls-39" x="18.85" y="0">o</tspan><tspan x="29.74" y="0">ry</tspan><tspan class="cls-40" x="48.22" y="0">t</tspan><tspan x="54.7" y="0">elling</tspan></text><circle class="cls-1" cx="170.23" cy="19.04" r="7.68"/><path class="cls-41" d="M159.63,31.32c1.07-.36,3.7-2.14,10.6-1.43s10.82,1.43,10.82,1.43l-5,21.78s-14.16-.36-13.51-1.79S159.63,31.32,159.63,31.32Z"/><path class="cls-1" d="M156.42,38.1c1.07-.36,4.28-7.14,8.21-2.5s0,27.85,0,27.85l-3.23,2.14Z"/><polygon class="cls-1" points="170.23 53.1 177.91 75.23 183.55 77.02 187.36 65.06 181.28 65.59 176.05 53.1 170.23 53.1"/><polygon class="cls-1" points="180.23 33.55 184.16 48.91 175.23 55.34 176.66 48.91 180.23 46.68 178.5 41.07 180.23 33.55"/><path class="cls-42" d="M247.17,70.1l-9.36,3.75s-11.93,7.44-12,7.41,2.1,11.47,4.68,11.47h16.86l-3.09-9.07,6.41-10.58Z"/><path class="cls-42" d="M254.92,72.13l-4.23,25.1s12.27,8.35,12.68,8.38,5.09-10.43,5.09-10.43l-5.09-6.31-3.79-16.74Z"/><circle class="cls-42" cx="252.7" cy="67.55" r="10.63"/><circle class="cls-42" cx="252.7" cy="59.14" r="6.13"/><path class="cls-42" d="M243.45,62.35h-8.68s-.24,9.12-.41,8.66,7.81-2.08,7.81-2.08Z"/><polygon class="cls-42" points="263.24 66.17 262.54 71.55 267.71 76.05 272.72 67.55 263.24 66.17"/><polygon class="cls-42" points="272.29 71.11 275.44 75.49 275.44 71.11 282.49 86.14 273.39 87.76 273.39 84 273.39 78.65 270.75 73.73 272.29 71.11"/><polygon class="cls-42" points="234.77 63.01 229.07 65.2 230.6 58.36 219.34 69.6 223.37 75.02 228.03 68.84 234.46 65.45 234.77 63.01"/><path class="cls-43" d="M246.57,59.14s.35-2.24,4.75-2.12a15.79,15.79,0,0,1,7.51,2.12"/><polygon class="cls-43" points="225.83 81.26 230.51 92.73 247.37 92.73 245.68 87.76 231.86 88.87 228.83 79.44 225.83 81.26"/><polygon class="cls-43" points="267.63 92.73 268.46 95.18 263.37 105.61 250.69 97.23 251.45 92.73 262.54 101.44 267.63 92.73"/><path class="cls-44" d="M223.37,75a9.3,9.3,0,0,1,0-7.47c1.8-3.76,7.23-9.19,7.23-9.19"/><path class="cls-44" d="M275.45,71.11s7,15,2.48,15.84"/><polygon class="cls-45" points="250.69 65.27 247.37 78.56 254.08 78.09 255.72 65.06 250.69 65.27"/><path class="cls-46" d="M162.54,19V3.15l5.86,4L172.85.91l3.2,5.37,5-1.34-2.26,6.42L177.91,19s-2.26-8.87-7.68-7.68S162.54,19,162.54,19Z"/><circle class="cls-47" cx="162.41" cy="67.12" r="5.99"/><ellipse class="cls-47" cx="181.71" cy="70.28" rx="5.65" ry="9.15"/><rect class="cls-48" x="186.63" y="167.6" width="48.24" height="155.15"/><rect class="cls-49" x="225.09" y="168.41" width="9.37" height="153.54"/><rect class="cls-8" x="186.63" y="167.6" width="48.24" height="155.15"/><rect class="cls-50" x="178.38" y="322.75" width="64.94" height="7.44"/><line class="cls-10" x1="181.15" y1="325.08" x2="194.38" y2="325.08"/><line class="cls-11" x1="191.71" y1="175" x2="191.71" y2="308.67"/><circle class="cls-12" cx="191.71" cy="316.03" r="1.26"/><text class="cls-3" transform="translate(213.54 198.03) rotate(90)">Mi<tspan class="cls-30" x="14.79" y="0">n</tspan><tspan x="22.58" y="0">df</tspan><tspan class="cls-51" x="36.02" y="0">u</tspan><tspan class="cls-52" x="43.67" y="0">lnes</tspan><tspan x="0" y="15.78">en </tspan><tspan class="cls-16" x="20.01" y="15.78">C</tspan><tspan x="30.01" y="15.78">ompa</tspan><tspan class="cls-53" x="67.54" y="15.78">s</tspan><tspan x="73.88" y="15.78">sie</tspan></text><circle class="cls-1" cx="242.98" cy="236.62" r="7.05"/><polygon class="cls-1" points="236.83 249.25 247.21 249.25 247.21 276.74 254.13 297.5 238.69 303.91 236.83 309.6 236.83 298.99 248.27 294.84 241.62 279.42 238.16 278.26 236.83 249.25"/><polygon class="cls-1" points="238.16 278.26 238.16 322.68 248.27 322.68 242.98 316.96 241.62 279.42 238.16 278.26"/><polygon class="cls-1" points="248.27 261.33 250.03 256.78 253.06 259.06 251.47 262.04 248.27 261.33"/><path class="cls-54" d="M243,229.57l-1.36,7.05v9.48l-5.69-9.48V220.86h7l-3.53,5.59s8.08-.54,10.58,1.86,3,8.31,3,8.31Z"/><polygon class="cls-55" points="236.83 249.25 236.83 287.78 253.06 286.13 247.21 276.74 247.21 249.25 236.83 249.25"/><polygon class="cls-1" points="236.83 249.25 241.35 249.05 248.27 261.33 251.47 262.04 251.47 268.76 245.48 267.13 236.83 249.25"/><path class="cls-54" d="M238.16,322.68v-16h8.77L245.48,316l6,3.59v3.13Z"/></g></g></svg>