<svg xmlns="http://www.w3.org/2000/svg" viewBox="0 0 72.68 164.6"><defs><style>.cls-1,.cls-12,.cls-3{fill:#fff;}.cls-1,.cls-8,.cls-9{stroke:#000;}.cls-1,.cls-10,.cls-11,.cls-8,.cls-9{stroke-miterlimit:10;}.cls-1,.cls-11,.cls-8,.cls-9{stroke-width:2px;}.cls-2{fill:#f4e72b;}.cls-3{font-size:13.15px;font-family:Quicksand-Bold, Quicksand;font-weight:700;}.cls-4{letter-spacing:-0.05em;}.cls-5{letter-spacing:-0.02em;}.cls-6{fill:#fcdc75;}.cls-7,.cls-9{fill:#cb9932;}.cls-10,.cls-11,.cls-8{fill:none;}.cls-10,.cls-11{stroke:#fff;stroke-linecap:round;}</style></defs><title>sw_breinken</title><g id="Layer_2" data-name="Layer 2"><g id="Layer_1-2" data-name="Layer 1"><circle class="cls-1" cx="62.85" cy="84.97" r="8.83"/><path class="cls-1" d="M64.52,81.87a8.8,8.8,0,0,1-7.38-1.76,8.07,8.07,0,0,1-.9-.85,8.64,8.64,0,0,0-.83.88A8.83,8.83,0,1,0,69.15,91.22l.12-.16a8.54,8.54,0,0,1-1.57-1A8.8,8.8,0,0,1,64.52,81.87Z"/><path class="cls-2" d="M64.74,81.53a8.84,8.84,0,0,1,1.74-4.08,8.84,8.84,0,0,0-10,1.47,12.17,12.17,0,0,0,.9.85A8.85,8.85,0,0,0,64.74,81.53Z"/><path class="cls-2" d="M69,79.32a8.81,8.81,0,0,1-4.21,2.21,8.84,8.84,0,0,0,3.19,8.18,8.73,8.73,0,0,0,1.57,1A8.83,8.83,0,0,0,69,79.32Z"/><path class="cls-2" d="M66.48,77.45a8.84,8.84,0,0,0-1.74,4.08A8.81,8.81,0,0,0,69,79.32a10.48,10.48,0,0,0-.9-.86A9.5,9.5,0,0,0,66.48,77.45Z"/><text class="cls-3" transform="translate(28.27 34.85) rotate(90)">B<tspan class="cls-4" x="7.81" y="0">r</tspan><tspan x="12.92" y="0">ein</tspan><tspan class="cls-5" x="32.68" y="0">k</tspan><tspan x="39.71" y="0">ennis</tspan></text><rect class="cls-6" x="9.24" y="1" width="48.24" height="155.15"/><rect class="cls-7" x="47.71" y="1.81" width="9.37" height="153.54"/><rect class="cls-8" x="9.24" y="1" width="48.24" height="155.15"/><rect class="cls-9" x="1" y="156.15" width="64.94" height="7.44"/><line class="cls-10" x1="3.77" y1="158.49" x2="17" y2="158.49"/><line class="cls-11" x1="14.32" y1="6.69" x2="14.32" y2="139.06"/><circle class="cls-12" cx="14.32" cy="150.7" r="1.26"/><text class="cls-3" transform="translate(28.27 33.07) rotate(90)">B<tspan class="cls-4" x="7.81" y="0">r</tspan><tspan x="12.92" y="0">ein</tspan><tspan class="cls-5" x="32.68" y="0">k</tspan><tspan x="39.71" y="0">ennis</tspan></text><ellipse class="cls-1" cx="57.69" cy="105.17" rx="3.67" ry="5.57"/></g></g></svg>