<svg xmlns="http://www.w3.org/2000/svg" viewBox="0 0 87.08 164.6"><defs><style>.cls-1{fill:#2494c7;}.cls-2{fill:#2280aa;}.cls-17,.cls-3,.cls-5,.cls-6{fill:none;}.cls-15,.cls-16,.cls-3,.cls-4{stroke:#000;}.cls-15,.cls-16,.cls-17,.cls-3,.cls-4,.cls-5,.cls-6{stroke-miterlimit:10;}.cls-15,.cls-16,.cls-17,.cls-3,.cls-4,.cls-6{stroke-width:2px;}.cls-4{fill:#1e7094;}.cls-5,.cls-6{stroke:#fff;stroke-linecap:round;}.cls-15,.cls-7,.cls-8{fill:#fff;}.cls-8{font-size:13.15px;font-family:Quicksand-Bold, Quicksand;font-weight:700;}.cls-9{letter-spacing:-0.01em;}.cls-10{letter-spacing:-0.02em;}.cls-11{letter-spacing:0.01em;}.cls-12{letter-spacing:-0.07em;}.cls-13{letter-spacing:-0.02em;}.cls-14{letter-spacing:-0.04em;}.cls-16{fill:#29abe2;}.cls-17{stroke:#29abe2;}</style></defs><title>sw_leersta</title><g id="Layer_2" data-name="Layer 2"><g id="Layer_1-2" data-name="Layer 1"><rect class="cls-1" x="9.24" y="1" width="48.24" height="155.15"/><rect class="cls-2" x="47.71" y="1.81" width="9.37" height="153.54"/><rect class="cls-3" x="9.24" y="1" width="48.24" height="155.15"/><rect class="cls-4" x="1" y="156.15" width="64.94" height="7.44"/><line class="cls-5" x1="3.77" y1="158.49" x2="17" y2="158.49"/><line class="cls-6" x1="14.32" y1="15.21" x2="14.32" y2="148.17"/><circle class="cls-7" cx="14.32" cy="8.93" r="1.4"/><text class="cls-8" transform="translate(27.74 25.94) rotate(90)"><tspan class="cls-9">L</tspan><tspan x="7.27" y="0">e</tspan><tspan class="cls-10" x="15.28" y="0">e</tspan><tspan x="23.01" y="0">r</tspan><tspan class="cls-11" x="28.78" y="0">s</tspan><tspan class="cls-12" x="35.44" y="0">t</tspan><tspan class="cls-13" x="39.78" y="0">r</tspan><tspan x="45.22" y="0">a</tspan><tspan class="cls-14" x="53.36" y="0">t</tspan><tspan x="58.09" y="0">egieën</tspan></text><polygon class="cls-15" points="64.49 52.26 65.94 44.09 85.21 39.53 74.85 59.89 64.49 52.26"/><polygon class="cls-16" points="74.85 46.8 71.39 49.71 65.94 44.09 72.51 42.54 74.85 46.8"/><path class="cls-15" d="M62.31,57s8.43-.12,8.09-.37S79,66,79,66s-13.09,12-14.54,18.21-7-16.71-7-16.71Z"/><polygon class="cls-15" points="63.35 77.97 46.16 86.75 35.85 99.42 51.46 109.62 56.53 92.52 65.71 83.33 63.35 77.97"/><polygon class="cls-16" points="39.09 95.44 52.39 105.5 51.46 109.62 35.85 99.42 39.09 95.44"/><path class="cls-17" d="M59.74,72.42s6.2-3.19,9.5-6.38"/><path class="cls-15" d="M68.26,59.89l-14-3.29-4.73-8.34L44.5,49.71v4.55l3.21,2.34,4.68,3.29L68.26,66S72,67.52,68.26,59.89Z"/></g></g></svg>