<svg xmlns="http://www.w3.org/2000/svg" viewBox="0 0 77.99 164.6"><defs><style>.cls-1{fill:#d87a3a;}.cls-2{fill:#a6602c;}.cls-3,.cls-5,.cls-6{fill:none;}.cls-14,.cls-15,.cls-16,.cls-3,.cls-4{stroke:#000;}.cls-14,.cls-15,.cls-16,.cls-3,.cls-4,.cls-5,.cls-6{stroke-miterlimit:10;}.cls-14,.cls-15,.cls-16,.cls-3,.cls-4,.cls-6{stroke-width:2px;}.cls-4{fill:#ab632d;}.cls-5,.cls-6{stroke:#fff;stroke-linecap:round;}.cls-14,.cls-7,.cls-8{fill:#fff;}.cls-8{font-size:13.15px;font-family:Quicksand-Bold, Quicksand;font-weight:700;}.cls-9{letter-spacing:-0.02em;}.cls-10{letter-spacing:-0.03em;}.cls-11{letter-spacing:0em;}.cls-12{letter-spacing:-0.01em;}.cls-13{letter-spacing:-0.01em;}.cls-16{fill:#c00;}</style></defs><title>sw_mindful</title><g id="Layer_2" data-name="Layer 2"><g id="Layer_1-2" data-name="Layer 1"><rect class="cls-1" x="9.24" y="1" width="48.24" height="155.15"/><rect class="cls-2" x="47.71" y="1.81" width="9.37" height="153.54"/><rect class="cls-3" x="9.24" y="1" width="48.24" height="155.15"/><rect class="cls-4" x="1" y="156.15" width="64.94" height="7.44"/><line class="cls-5" x1="3.77" y1="158.49" x2="17" y2="158.49"/><line class="cls-6" x1="14.32" y1="8.4" x2="14.32" y2="142.07"/><circle class="cls-7" cx="14.32" cy="149.43" r="1.26"/><text class="cls-8" transform="translate(36.16 31.43) rotate(90)">Mi<tspan class="cls-9" x="14.79" y="0">n</tspan><tspan x="22.58" y="0">df</tspan><tspan class="cls-10" x="36.02" y="0">u</tspan><tspan class="cls-11" x="43.67" y="0">lnes</tspan><tspan x="0" y="15.78">en </tspan><tspan class="cls-12" x="20.01" y="15.78">C</tspan><tspan x="30.01" y="15.78">ompa</tspan><tspan class="cls-13" x="67.54" y="15.78">s</tspan><tspan x="73.88" y="15.78">sie</tspan></text><circle class="cls-14" cx="65.6" cy="70.02" r="7.05"/><polygon class="cls-14" points="59.45 82.65 69.83 82.65 69.83 110.14 76.75 130.9 61.31 137.31 59.45 143 59.45 132.39 70.89 128.24 64.24 112.83 60.78 111.67 59.45 82.65"/><polygon class="cls-14" points="60.78 111.67 60.78 156.08 70.89 156.08 65.59 150.36 64.24 112.83 60.78 111.67"/><polygon class="cls-14" points="70.89 94.73 72.65 90.19 75.68 92.46 74.08 95.44 70.89 94.73"/><path class="cls-15" d="M65.6,63l-1.36,7v9.49L58.54,70V54.26H65.6l-3.53,5.59s8.08-.53,10.58,1.86,3,8.31,3,8.31Z"/><polygon class="cls-16" points="59.45 82.65 59.45 121.18 75.68 119.53 69.83 110.14 69.83 82.65 59.45 82.65"/><polygon class="cls-14" points="59.45 82.65 63.97 82.45 70.89 94.73 74.08 95.44 74.08 102.16 68.1 100.53 59.45 82.65"/><path class="cls-15" d="M60.78,156.08v-16h8.77l-1.45,9.31,6,3.59v3.13Z"/></g></g></svg>