<svg xmlns="http://www.w3.org/2000/svg" viewBox="0 0 97.68 164.6"><defs><style>.cls-1,.cls-15{fill:#2e3192;}.cls-1,.cls-2,.cls-4,.cls-7,.cls-8{stroke:#000;}.cls-1,.cls-10,.cls-2,.cls-3,.cls-4,.cls-7,.cls-8,.cls-9{stroke-miterlimit:10;}.cls-1,.cls-10,.cls-2,.cls-3,.cls-4,.cls-7,.cls-8{stroke-width:2px;}.cls-2{fill:#f15a24;}.cls-10,.cls-3,.cls-7,.cls-9{fill:none;}.cls-3{stroke:#1b1464;}.cls-4{fill:#1b1464;}.cls-5{fill:#61a799;}.cls-6{fill:#559286;}.cls-8{fill:#538e82;}.cls-10,.cls-9{stroke:#fff;stroke-linecap:round;}.cls-11,.cls-12{fill:#fff;}.cls-12{font-size:13.15px;font-family:Quicksand-Bold, Quicksand;font-weight:700;}.cls-13{letter-spacing:-0.02em;}.cls-14{letter-spacing:-0.04em;}</style></defs><title>sw_mindset</title><g id="Layer_2" data-name="Layer 2"><g id="Layer_1-2" data-name="Layer 1"><path class="cls-1" d="M63,82.81S60,66.18,68.45,68.23c8.64,2.09-2.55,15.84-2.55,15.84Z"/><path class="cls-2" d="M60.13,82.27,74.5,84.93l5,8.72-13.34,12s-1.82-2.93-4.49-2.93a5.26,5.26,0,0,0-4,1.6l-.41-22.09Z"/><path class="cls-2" d="M57.75,67.73,62,66.23,67.11,71l9.25-2.09,2.1,4s-6.8,12.7-14,11.53C58,83.39,57.75,67.73,57.75,67.73Z"/><path class="cls-3" d="M57.34,82.27s2.4,5,7.09,4.81a12.16,12.16,0,0,0,7.4-2.64"/><polygon class="cls-2" points="75.78 87.15 82.84 87.15 85.56 96.29 78.46 98.17 75.78 97.05 75.78 87.15"/><path class="cls-4" d="M66.21,105.69v9.85H57.75V104.36s0-1.6,4-1.6S66.21,105.69,66.21,105.69Z"/><path class="cls-2" d="M57.75,115.54h8.46s4.83,8,5.36,9.31,2.13,11.92,2.13,11.92l2.66,15.49s4,1.93,4.52,2-11.56,1-11.56,1l1.19-4.09s-4.79-16.14-5.33-19.12S62,123,62,123l-1.85,10.38v16.46L62,154.29H55.07Z"/><polyline class="cls-3" points="57.76 123.44 63.02 125.5 68.45 121.37"/><path class="cls-2" d="M63,131.61c-.28-.82,6.56-6.76,6.56-6.76l7.11,8.47-3.32,11.77Z"/><path class="cls-2" d="M79.55,105.69c0-.42-2.22-5.43,1.12-10S91.82,84.44,91.82,84.44s-3.6,21.25-7.93,21.25Z"/><polygon class="cls-2" points="88.06 87.15 83.68 80.66 88.06 82.27 89.31 71.03 91.82 77.52 96.68 75.28 96.68 80.66 91.82 87.15 88.06 87.15"/><path class="cls-3" d="M55.07,95.63a26.13,26.13,0,0,1,9.36,0,11.13,11.13,0,0,1,7.22,5.15"/><rect class="cls-5" x="9.24" y="1" width="48.24" height="155.15"/><rect class="cls-6" x="47.71" y="1.81" width="9.37" height="153.54"/><rect class="cls-7" x="9.24" y="1" width="48.24" height="155.15"/><rect class="cls-8" x="1" y="156.15" width="64.94" height="7.44"/><line class="cls-9" x1="3.77" y1="158.49" x2="17" y2="158.49"/><line class="cls-10" x1="14.08" y1="10.33" x2="14.08" y2="131.66"/><circle class="cls-11" cx="14.08" cy="137.82" r="1.24"/><text class="cls-12" transform="translate(28.16 43.77) rotate(90)">Mi<tspan class="cls-13" x="14.79" y="0">n</tspan><tspan x="22.58" y="0">ds</tspan><tspan class="cls-14" x="37.73" y="0">e</tspan><tspan x="45.21" y="0">t</tspan></text><path class="cls-3" d="M79.55,105.69a22,22,0,0,1,6-9.4c4.75-4.53,4-1.59,4-1.59"/><circle class="cls-11" cx="63.02" cy="90.38" r="2.12"/><circle class="cls-15" cx="63.02" cy="74.21" r="1.88"/><circle class="cls-15" cx="70.33" cy="76.09" r="1.88"/></g></g></svg>