<svg xmlns="http://www.w3.org/2000/svg" viewBox="0 0 323.25 169.15"><defs><style>.cls-1{fill:#cb6566;}.cls-2{fill:#a75454;}.cls-3{fill:#c7292c;}.cls-17,.cls-4,.cls-5,.cls-6{fill:none;}.cls-13,.cls-14,.cls-15,.cls-18,.cls-19,.cls-20,.cls-4{stroke:#000;}.cls-13,.cls-14,.cls-15,.cls-17,.cls-18,.cls-19,.cls-20,.cls-4,.cls-5,.cls-6{stroke-miterlimit:10;}.cls-13,.cls-14,.cls-15,.cls-20,.cls-4,.cls-6{stroke-width:2px;}.cls-5,.cls-6{stroke:#fff;stroke-linecap:round;}.cls-13,.cls-18,.cls-7,.cls-8{fill:#fff;}.cls-8{font-size:18px;font-family:Quicksand-Bold, Quicksand;font-weight:700;}.cls-9{letter-spacing:0em;}.cls-10{letter-spacing:-0.02em;}.cls-11{letter-spacing:-0.02em;}.cls-12{letter-spacing:-0.04em;}.cls-14{fill:#399;}.cls-15{fill:#2e3dff;}.cls-16{fill:#c03;}.cls-17{stroke:#c03;}.cls-19{fill:#630;}.cls-20{fill:#300;}</style></defs><title>sw_storytelling</title><g id="Layer_2" data-name="Layer 2"><g id="Layer_1-2" data-name="Layer 1"><polygon class="cls-1" points="319.53 145.92 161.59 44.45 3.65 145.92 319.53 145.92"/><polygon class="cls-2" points="319.76 145.92 161.82 44.45 223.62 145.92 319.76 145.92"/><rect class="cls-3" x="0.93" y="145.27" width="321.32" height="22.88"/><rect class="cls-4" x="1.39" y="145.73" width="320.86" height="22.42"/><polygon class="cls-4" points="319.29 145.53 161.35 44.05 3.41 145.53 319.29 145.53"/><line class="cls-5" x1="151.48" y1="58.3" x2="114.64" y2="81.89"/><line class="cls-6" x1="8.49" y1="149.53" x2="36.47" y2="149.53"/><circle class="cls-7" cx="41.87" cy="149.53" r="0.86"/><circle class="cls-7" cx="110.45" cy="84.57" r="0.91"/><text class="cls-8" transform="translate(111.36 161.11)"><tspan class="cls-9">S</tspan><tspan class="cls-10" x="11.92" y="0">t</tspan><tspan class="cls-11" x="18.85" y="0">o</tspan><tspan x="29.74" y="0">ry</tspan><tspan class="cls-12" x="48.22" y="0">t</tspan><tspan x="54.7" y="0">elling</tspan></text><circle class="cls-13" cx="163.65" cy="19.04" r="7.68"/><path class="cls-14" d="M153.05,31.32c1.08-.36,3.7-2.14,10.6-1.43s10.83,1.43,10.83,1.43l-5,21.78s-14.17-.36-13.51-1.79S153.05,31.32,153.05,31.32Z"/><path class="cls-13" d="M149.84,38.1c1.07-.36,4.29-7.14,8.21-2.5s0,27.85,0,27.85l-3.23,2.14Z"/><polygon class="cls-13" points="163.65 53.1 171.33 75.23 176.98 77.02 180.79 65.06 174.7 65.59 169.48 53.1 163.65 53.1"/><polygon class="cls-13" points="173.65 33.55 177.58 48.91 168.65 55.34 170.08 48.91 173.65 46.68 171.93 41.07 173.65 33.55"/><path class="cls-15" d="M240.59,70.1l-9.35,3.75s-11.93,7.44-12,7.41,2.1,11.47,4.68,11.47h16.86l-3.08-9.07,6.4-10.58Z"/><path class="cls-15" d="M248.34,72.13l-4.23,25.1s12.27,8.35,12.69,8.38,5.09-10.43,5.09-10.43l-5.09-6.31L253,72.13Z"/><circle class="cls-15" cx="246.13" cy="67.55" r="10.63"/><circle class="cls-15" cx="246.13" cy="59.14" r="6.13"/><path class="cls-15" d="M236.87,62.35h-8.68s-.24,9.12-.41,8.66,7.81-2.08,7.81-2.08Z"/><polygon class="cls-15" points="256.66 66.17 255.96 71.55 261.13 76.05 266.14 67.55 256.66 66.17"/><polygon class="cls-15" points="265.71 71.11 268.87 75.49 268.87 71.11 275.92 86.14 266.82 87.76 266.82 84 266.82 78.65 264.17 73.73 265.71 71.11"/><polygon class="cls-15" points="228.19 63.01 222.49 65.2 224.03 58.36 212.76 69.6 216.79 75.02 221.46 68.84 227.88 65.45 228.19 63.01"/><path class="cls-16" d="M240,59.14s.35-2.24,4.75-2.12a15.8,15.8,0,0,1,7.52,2.12"/><polygon class="cls-16" points="219.25 81.26 223.93 92.73 240.79 92.73 239.1 87.76 225.29 88.87 222.25 79.44 219.25 81.26"/><polygon class="cls-16" points="261.05 92.73 261.89 95.18 256.8 105.61 244.11 97.23 244.87 92.73 255.96 101.44 261.05 92.73"/><path class="cls-17" d="M216.79,75a9.3,9.3,0,0,1,0-7.47c1.8-3.76,7.24-9.19,7.24-9.19"/><path class="cls-17" d="M268.87,71.11s7,15,2.48,15.84"/><polygon class="cls-18" points="244.11 65.27 240.79 78.56 247.51 78.09 249.15 65.06 244.11 65.27"/><path class="cls-19" d="M156,19V3.15l5.85,4L166.28.91l3.2,5.37,5-1.34-2.26,6.42L171.33,19s-2.25-8.87-7.68-7.68S156,19,156,19Z"/><circle class="cls-20" cx="155.83" cy="67.12" r="5.99"/><ellipse class="cls-20" cx="175.13" cy="70.28" rx="5.65" ry="9.15"/></g></g></svg>