<svg xmlns="http://www.w3.org/2000/svg" viewBox="0 0 256.82 294.46"><defs><style>.cls-1,.cls-3,.cls-6{fill:#fff;}.cls-1,.cls-7{stroke:#1d1d1b;}.cls-1,.cls-3,.cls-4,.cls-7{stroke-miterlimit:10;}.cls-1{stroke-width:4px;}.cls-2{fill:#c7292c;}.cls-3,.cls-4{stroke:#000;}.cls-3,.cls-4,.cls-5{stroke-width:2px;}.cls-4,.cls-5,.cls-7{fill:none;}.cls-5{stroke:#fff;stroke-linejoin:round;}.cls-5,.cls-7{stroke-linecap:round;}.cls-8{fill:#1d1d1b;}</style></defs><title>br_compas</title><g id="Layer_2" data-name="Layer 2"><g id="Layer_1-2" data-name="Layer 1"><rect class="cls-1" x="2" y="35.57" width="124.76" height="256.89"/><rect class="cls-1" x="126.76" y="2" width="128.06" height="256.89"/><path class="cls-2" d="M192.49,87a17.43,17.43,0,0,0-24.67,0l-4,4-3.86-3.86a17.46,17.46,0,0,0-24.68,0h0a17.46,17.46,0,0,0,0,24.68l28.68,28.67,24.67-24.68-.13-.13,4-4A17.43,17.43,0,0,0,192.49,87Z"/><path class="cls-3" d="M45.85,117H62.63a5,5,0,0,1,5,5v37a5,5,0,0,1-5,5H45.85a0,0,0,0,1,0,0V117A0,0,0,0,1,45.85,117Z"/><path class="cls-3" d="M171.14,170h-22c-4.94.81-10.93-3.1-14.2-4.39a167.5,167.5,0,0,1-23.83-11.88A167.5,167.5,0,0,0,135,165.65c3.27,1.29,9.26,5.2,14.2,4.39h-1.43l.71-.43c7.75-5,4-14.25,4-14.25s-45.79-29.6-50.54-31.71a17.22,17.22,0,0,0-8.5-1.62H67.66V159l1.37.28-1.37-.1,3.28.49,9.68,2a23.68,23.68,0,0,1,3.27,2.67l18.18,12.85s11.2,9.55,13.2,10.8,7,1.52,7,1.52l48.63,1.86s12.24-.27,12.25-12C183.15,168.91,171.14,170,171.14,170Z"/><path class="cls-4" d="M192.49,87a17.43,17.43,0,0,0-24.67,0l-4,4-3.86-3.86a17.46,17.46,0,0,0-24.68,0h0a17.46,17.46,0,0,0,0,24.68l28.68,28.67,24.67-24.68-.13-.13,4-4A17.43,17.43,0,0,0,192.49,87Z"/><path class="cls-5" d="M151.55,88.84s-5.28-4-10.11,0-3.52,8.8-3.52,8.8"/><circle class="cls-6" cx="139.06" cy="102.76" r="1.31"/><circle class="cls-6" cx="141.7" cy="106.56" r="0.7"/><line class="cls-7" x1="177.1" y1="134.1" x2="171.84" y2="139.36"/><path class="cls-7" d="M163.88,84.79s5.66-11.18,23.74-5.92"/><path class="cls-7" d="M125.4,99.86s-.84,2.25,1.16,7.4,8.27,10,8.27,10"/><path class="cls-7" d="M200.3,94.75a20.32,20.32,0,0,1,1.16,6.7c-.23,2.77-2.77,8.08-5.08,10.85"/><circle class="cls-8" cx="126.21" cy="95.54" r="0.7"/><circle class="cls-8" cx="198.93" cy="91.24" r="0.6"/><circle class="cls-8" cx="152.18" cy="133.47" r="0.88"/></g></g></svg>