<svg xmlns="http://www.w3.org/2000/svg" viewBox="0 0 256.82 294.46"><defs><style>.cls-1,.cls-4,.cls-6{fill:#fff;}.cls-1{stroke:#1d1d1b;stroke-width:4px;}.cls-1,.cls-3,.cls-4,.cls-9{stroke-miterlimit:10;}.cls-2{fill:#c7292c;}.cls-3,.cls-9{fill:none;}.cls-3,.cls-4{stroke:#000;}.cls-3,.cls-4,.cls-9{stroke-width:2px;}.cls-5{fill:#f4e72d;}.cls-7{fill:#1199d1;}.cls-8{fill:#434c5f;}.cls-9{stroke:#fff;stroke-linecap:round;}</style></defs><title>br_confi_1</title><g id="Layer_2" data-name="Layer 2"><g id="Layer_1-2" data-name="Layer 1"><rect class="cls-1" x="2" y="35.57" width="124.76" height="256.89"/><rect class="cls-1" x="126.76" y="2" width="128.06" height="256.89"/><polygon class="cls-2" points="142.96 107.16 117.17 106.13 119.93 199.54 215.43 215.04 205.11 141.73 142.96 107.16"/><polygon class="cls-3" points="215.43 215.04 119.93 199.54 117.17 106.13 142.96 107.16 205.11 141.73 215.43 215.04"/><circle class="cls-4" cx="127.98" cy="77.07" r="19.81"/><path class="cls-4" d="M126.53,69.31a19.78,19.78,0,0,1-15.37,7.32,19.55,19.55,0,0,1-2.78-.22,20.22,20.22,0,0,0-.2,2.71,19.81,19.81,0,1,0,39.61,0c0-.15,0-.29,0-.44a20.31,20.31,0,0,1-4.16.44A19.79,19.79,0,0,1,126.53,69.31Z"/><path class="cls-5" d="M126.44,68.39a19.64,19.64,0,0,1-2.71-9.55,19.8,19.8,0,0,0-15.44,16.65,19.55,19.55,0,0,0,2.78.22A19.8,19.8,0,0,0,126.44,68.39Z"/><path class="cls-5" d="M130.67,58.61a19.74,19.74,0,0,1-4.23,9.78,19.72,19.72,0,0,0,21.24,9.36A19.78,19.78,0,0,0,130.67,58.61Z"/><path class="cls-5" d="M123.73,58.84a19.64,19.64,0,0,0,2.71,9.55,19.74,19.74,0,0,0,4.23-9.78,18.7,18.7,0,0,0-6.94.23Z"/><path class="cls-6" d="M171.59,121.14l-28.92-14a9,9,0,0,0-5-1.46H120.31l-.32,0a8.88,8.88,0,0,0-5.34,1.44l-28.93,14a13.9,13.9,0,0,0-4.57,18.35l13.33,24.24a9.36,9.36,0,0,0,10.3,4.61l-6.47,75.19a.9.9,0,0,0,.9,1h16.87l6.48-51.44a7.94,7.94,0,0,1,15.71-.34L147,244.51h14.32a.91.91,0,0,0,.9-1l-8-74.95a9.33,9.33,0,0,0,8.6-4.83l13.33-24.24A13.9,13.9,0,0,0,171.59,121.14Zm-69.88,22.64a13.92,13.92,0,0,1,4.57-18.36l2.28-1-2.37,27.53Zm53.9,0-3.37,6.13-2.7-25.16,1.5.67A13.94,13.94,0,0,1,155.61,143.78Z"/><path class="cls-7" d="M153,150.11h0L150.32,125l1.49.67a13.81,13.81,0,0,1,5.83,8.1v0L159.31,115l-15.86-7.66a8.91,8.91,0,0,0-5-1.47H121.09l-.32,0a8.94,8.94,0,0,0-5.35,1.45l-11.86,5.73,3,12.92c.18-.13.35-.27.54-.39l2.28-1-3.78,43.93,49.45.22Z"/><path class="cls-8" d="M99.46,243.72a.9.9,0,0,0,.9,1h16.87l6.49-51.44a7.94,7.94,0,0,1,15.7-.33l8.78,51.77h14.32a.89.89,0,0,0,.89-1l-8-74.94H105.91Z"/><path class="cls-3" d="M171.88,121.14l-28.92-14a9,9,0,0,0-5-1.46H120.6l-.31,0a8.9,8.9,0,0,0-5.35,1.44L86,121.14a13.91,13.91,0,0,0-4.57,18.35l13.33,24.24a9.36,9.36,0,0,0,10.3,4.61L98.6,243.53a.9.9,0,0,0,.9,1h16.87l6.48-51.44a7.94,7.94,0,0,1,15.71-.34l8.77,51.78h14.32a.9.9,0,0,0,.9-1l-8-74.95a9.33,9.33,0,0,0,8.6-4.83l13.33-24.24A13.9,13.9,0,0,0,171.88,121.14ZM102,143.78a13.92,13.92,0,0,1,4.57-18.36l2.28-1-2.37,27.53Zm53.9,0-3.37,6.13-2.7-25.16,1.5.67A13.94,13.94,0,0,1,155.9,143.78Z"/><line class="cls-9" x1="200.63" y1="146.49" x2="207.12" y2="187.45"/><circle class="cls-6" cx="208.34" cy="193.12" r="1.22"/></g></g></svg>