<svg xmlns="http://www.w3.org/2000/svg" viewBox="0 0 256.82 294.46"><defs><style>.cls-1,.cls-2,.cls-6{fill:#fff;}.cls-1,.cls-2,.cls-3{stroke:#1d1d1b;}.cls-1,.cls-2,.cls-3,.cls-5,.cls-7{stroke-miterlimit:10;}.cls-1{stroke-width:4px;}.cls-2{stroke-width:2px;}.cls-3,.cls-7{fill:none;}.cls-4{fill:#1d1d1b;}.cls-5{fill:#d87a3a;stroke:#000;stroke-width:3px;}.cls-7{stroke:#fff;stroke-linecap:round;}</style></defs><title>br_learn</title><g id="Layer_2" data-name="Layer 2"><g id="Layer_1-2" data-name="Layer 1"><rect class="cls-1" x="2" y="35.57" width="124.76" height="256.89"/><rect class="cls-1" x="126.76" y="2" width="128.06" height="256.89"/><path class="cls-2" d="M189.55,124.79l-67,35.71L55.92,125.27a3.91,3.91,0,0,1-.28-6.77L116,80.06a12.24,12.24,0,0,1,13.21,0l60.61,39A3.32,3.32,0,0,1,189.55,124.79Z"/><path class="cls-2" d="M152.4,118.18H92.1c-7.34,0-13.29,5.63-13.29,12.57h0v28.6h86.88v-28.6h0C165.69,123.81,159.74,118.18,152.4,118.18Z"/><ellipse class="cls-2" cx="122.25" cy="159.35" rx="43.44" ry="11.14"/><line class="cls-3" x1="49.95" y1="122.12" x2="49.95" y2="138.76"/><circle class="cls-4" cx="49.95" cy="138.76" r="4.38"/><polygon class="cls-5" points="25.38 224.44 30.85 231.57 40.13 219.69 35.85 210.8 25.38 224.44"/><polygon class="cls-5" points="69.07 207.06 42.04 202.74 35.85 210.8 40.13 219.69 43.76 215.04 73.77 218.71 87.79 200.73 83.15 191.06 69.07 207.06"/><polygon class="cls-5" points="123.72 180.66 93.6 179.17 83.15 191.06 87.79 200.73 97.06 188.85 131.89 191.62 136.5 183.94 130.24 170.9 123.72 180.66"/><polygon class="cls-5" points="150.88 139.98 130.24 170.9 136.5 183.94 155.64 152.07 178.41 152.99 173.37 142.5 150.88 139.98"/><polygon class="cls-5" points="195.19 103.03 204.72 111.9 176.96 142.9 173.37 142.5 178.41 152.99 184.33 153.23 212.95 118.19 222.9 128.42 223.09 127.82 208.09 96.61 195.19 103.03"/><polygon class="cls-5" points="223.09 127.82 237.79 81.82 208.09 96.61 223.09 127.82"/><circle class="cls-6" cx="226.77" cy="96.06" r="1.69"/><line class="cls-7" x1="225.09" y1="100.54" x2="219.88" y2="111.33"/><line class="cls-7" x1="205.81" y1="121.94" x2="185.57" y2="144.68"/><path class="cls-7" d="M149.52,153.23c-.57,1.09-11,17.67-11,17.67"/><path class="cls-7" d="M101,185.81l21.62,1.86"/><line class="cls-7" x1="80.9" y1="202.51" x2="73.57" y2="210.8"/><line class="cls-7" x1="45.57" y1="211.57" x2="51.79" y2="212.54"/><circle class="cls-6" cx="56.07" cy="213.07" r="0.53"/><circle class="cls-6" cx="98.75" cy="185.78" r="0.53"/><circle class="cls-6" cx="151.38" cy="150.18" r="0.65"/></g></g></svg>