<svg xmlns="http://www.w3.org/2000/svg" viewBox="0 0 256.82 294.46"><defs><style>.cls-1,.cls-11,.cls-9{fill:#fff;}.cls-1,.cls-8,.cls-9{stroke:#1d1d1b;stroke-miterlimit:10;}.cls-1{stroke-width:4px;}.cls-2{fill:#063;}.cls-3{fill:#3aaa35;}.cls-4{fill:#95c11f;}.cls-5{fill:#e94e1b;}.cls-6{fill:#e6332a;}.cls-7{fill:#be1622;}.cls-10,.cls-8{fill:none;}.cls-10,.cls-8,.cls-9{stroke-width:2px;}.cls-10{stroke:#fff;stroke-linecap:round;stroke-linejoin:round;}</style></defs><title>br_stress</title><g id="Layer_2" data-name="Layer 2"><g id="Layer_1-2" data-name="Layer 1"><rect class="cls-1" x="2" y="35.57" width="124.76" height="256.89"/><rect class="cls-1" x="126.76" y="2" width="128.06" height="256.89"/><path class="cls-2" d="M41.2,133.42v37.63a68.19,68.19,0,0,1,17.61-18.18V115.25A68.6,68.6,0,0,0,41.2,133.42Z"/><path class="cls-3" d="M58.81,115.25v37.62a104.21,104.21,0,0,1,34.8-16V99.29A104.4,104.4,0,0,0,58.81,115.25Z"/><path class="cls-4" d="M127.44,95a133.32,133.32,0,0,0-33.83,4.27V136.9a133.32,133.32,0,0,1,33.83-4.27h1V95Z"/><path class="cls-5" d="M128.41,95v37.6a132.9,132.9,0,0,1,34.8,4.78V99.81A132.49,132.49,0,0,0,128.41,95Z"/><path class="cls-6" d="M163.21,99.81v37.61a102.29,102.29,0,0,1,34.8,16.9V116.7A102.09,102.09,0,0,0,163.21,99.81Z"/><path class="cls-7" d="M198,116.7v37.62a64.92,64.92,0,0,1,17.61,20V136.7A64.86,64.86,0,0,0,198,116.7Z"/><path class="cls-8" d="M215.62,136.7C202.35,112.37,167.88,95,127.44,95c-38.6,0-71.76,15.8-86.24,38.4v37.63c14.48-22.61,47.63-38.42,86.24-38.42,40.45,0,74.92,17.36,88.18,41.71Z"/><path class="cls-9" d="M122.29,217.36h12.24a3.75,3.75,0,0,0,3.74-3.93L132.15,89.29a3.75,3.75,0,0,0-3.74-3.56h0a3.75,3.75,0,0,0-3.74,3.56l-6.12,124.14A3.75,3.75,0,0,0,122.29,217.36Z"/><circle cx="128.41" cy="217.36" r="16.21"/><path class="cls-10" d="M45.46,134.68s10.84-13.28,23-19.43"/><circle class="cls-11" cx="73.9" cy="112.27" r="1.49"/><circle class="cls-11" cx="79.56" cy="109.92" r="1.49"/></g></g></svg>