<svg xmlns="http://www.w3.org/2000/svg" viewBox="0 0 157.13 115.34"><defs><style>.cls-1{fill:#c7292c;}.cls-2,.cls-5{fill:#fff;}.cls-2,.cls-3{stroke:#000;}.cls-2,.cls-3,.cls-6{stroke-miterlimit:10;}.cls-2,.cls-3,.cls-4{stroke-width:2px;}.cls-3,.cls-4,.cls-6{fill:none;}.cls-4{stroke:#fff;stroke-linejoin:round;}.cls-4,.cls-6{stroke-linecap:round;}.cls-6{stroke:#1d1d1b;}.cls-7{fill:#1d1d1b;}</style></defs><title>compassion</title><g id="Layer_2" data-name="Layer 2"><g id="Layer_1-2" data-name="Layer 1"><path class="cls-1" d="M147.64,10A17.45,17.45,0,0,0,123,10l-4,4-3.86-3.87a17.46,17.46,0,0,0-24.68,0h0a17.46,17.46,0,0,0,0,24.68l28.68,28.67,24.67-24.67-.13-.14,4-4A17.44,17.44,0,0,0,147.64,10Z"/><path class="cls-2" d="M1,40H17.78a5,5,0,0,1,5,5V82a5,5,0,0,1-5,5H1a0,0,0,0,1,0,0V40A0,0,0,0,1,1,40Z"/><path class="cls-2" d="M126.3,93.07h-22c-4.94.81-10.93-3.1-14.2-4.39A167.5,167.5,0,0,1,66.29,76.8,167.5,167.5,0,0,0,90.12,88.68c3.27,1.29,9.26,5.2,14.2,4.39h-1.43l.71-.43c7.75-5,4-14.25,4-14.25S61.81,48.79,57.06,46.68a17.27,17.27,0,0,0-8.5-1.61H22.81V82l1.37.28-1.37-.11,3.28.5,9.68,2a24.64,24.64,0,0,1,3.28,2.68l18.17,12.84s11.2,9.56,13.2,10.81,7,1.52,7,1.52l48.63,1.85s12.24-.27,12.25-12C138.3,92,126.3,93.07,126.3,93.07Z"/><path class="cls-3" d="M147.64,10A17.45,17.45,0,0,0,123,10l-4,4-3.86-3.87a17.46,17.46,0,0,0-24.68,0h0a17.46,17.46,0,0,0,0,24.68l28.68,28.67,24.67-24.67-.13-.14,4-4A17.44,17.44,0,0,0,147.64,10Z"/><path class="cls-4" d="M106.7,11.87s-5.27-4-10.11,0-3.52,8.8-3.52,8.8"/><circle class="cls-5" cx="94.21" cy="25.79" r="1.31"/><circle class="cls-5" cx="96.85" cy="29.59" r="0.7"/><line class="cls-6" x1="132.25" y1="57.13" x2="126.99" y2="62.39"/><path class="cls-6" d="M119,7.82s5.66-11.17,23.74-5.91"/><path class="cls-6" d="M80.55,22.89s-.84,2.25,1.16,7.4,8.27,10,8.27,10"/><path class="cls-6" d="M155.45,17.79a20.26,20.26,0,0,1,1.16,6.7c-.23,2.76-2.77,8.07-5.08,10.84"/><circle class="cls-7" cx="81.36" cy="18.58" r="0.7"/><circle class="cls-7" cx="154.08" cy="14.28" r="0.6"/><circle class="cls-7" cx="107.33" cy="56.51" r="0.88"/></g></g></svg>