<svg xmlns="http://www.w3.org/2000/svg" viewBox="0 0 137.89 189.24"><defs><style>.cls-1{fill:#c7292c;}.cls-2,.cls-6{fill:none;stroke-miterlimit:10;stroke-width:2px;}.cls-2{stroke:#000;}.cls-3{fill:#fff;}.cls-4{fill:#1199d1;}.cls-5{fill:#434c5f;}.cls-6{stroke:#fff;stroke-linecap:round;}</style></defs><title>confidence</title><g id="Layer_2" data-name="Layer 2"><g id="Layer_1-2" data-name="Layer 1"><polygon class="cls-1" points="64.24 50.9 38.46 49.86 41.21 143.27 136.71 158.77 126.39 85.47 64.24 50.9"/><polygon class="cls-2" points="136.71 158.77 41.21 143.27 38.46 49.86 64.24 50.9 126.39 85.47 136.71 158.77"/><circle class="cls-2" cx="49.27" cy="20.81" r="19.81"/><path class="cls-3" d="M92.88,64.87,64,50.9a8.88,8.88,0,0,0-5-1.47H41.6l-.32,0a8.92,8.92,0,0,0-5.35,1.45L7,64.87A13.93,13.93,0,0,0,2.43,83.23l13.34,24.23a9.36,9.36,0,0,0,10.29,4.61l-6.47,75.19a.9.9,0,0,0,.9,1H37.37l6.48-51.44a7.94,7.94,0,0,1,15.71-.33l8.77,51.77H82.65a.9.9,0,0,0,.89-1l-8-74.95a9.33,9.33,0,0,0,8.6-4.83L97.45,83.23A13.93,13.93,0,0,0,92.88,64.87ZM23,87.51a13.92,13.92,0,0,1,4.57-18.35l2.28-1L27.48,95.66Zm53.9,0-3.37,6.13L70.83,68.49l1.49.67A13.9,13.9,0,0,1,76.89,87.51Z"/><path class="cls-4" d="M74.3,93.85h0L71.61,68.69l1.49.67a13.88,13.88,0,0,1,5.83,8.11h0L80.6,58.77,64.73,51.1a9,9,0,0,0-5-1.46H42.38l-.32,0a8.92,8.92,0,0,0-5.35,1.45L24.85,56.83l3,12.92c.18-.13.35-.27.53-.39l2.28-1-3.78,43.94,49.46.22Z"/><path class="cls-5" d="M20.75,187.45a.9.9,0,0,0,.89,1H38.52L45,137a7.94,7.94,0,0,1,15.71-.34l8.77,51.78H83.8a.91.91,0,0,0,.9-1l-8-74.93H27.2Z"/><path class="cls-2" d="M93.17,64.87l-28.93-14a8.88,8.88,0,0,0-5-1.47H41.89l-.32,0a8.92,8.92,0,0,0-5.35,1.45L7.3,64.87A13.92,13.92,0,0,0,2.73,83.23l13.33,24.23a9.36,9.36,0,0,0,10.29,4.61l-6.46,75.19a.89.89,0,0,0,.89,1H37.66l6.48-51.44a7.94,7.94,0,0,1,15.71-.33l8.77,51.77H82.94a.9.9,0,0,0,.89-1l-8-74.95a9.33,9.33,0,0,0,8.6-4.83L97.74,83.23A13.93,13.93,0,0,0,93.17,64.87ZM23.28,87.51a13.92,13.92,0,0,1,4.57-18.35l2.28-1L27.77,95.66Zm53.9,0-3.37,6.13L71.12,68.49l1.49.67A13.9,13.9,0,0,1,77.18,87.51Z"/><line class="cls-6" x1="121.91" y1="90.23" x2="128.4" y2="131.18"/><circle class="cls-3" cx="129.63" cy="136.85" r="1.22"/></g></g></svg>