<svg xmlns="http://www.w3.org/2000/svg" viewBox="0 0 216.81 156.88"><defs><style>.cls-1,.cls-5{fill:#fff;}.cls-1,.cls-2{stroke:#1d1d1b;}.cls-1,.cls-2,.cls-4,.cls-6{stroke-miterlimit:10;}.cls-1{stroke-width:2px;}.cls-2,.cls-6{fill:none;}.cls-3{fill:#1d1d1b;}.cls-4{fill:#d87a3a;stroke:#000;stroke-width:3px;}.cls-6{stroke:#fff;stroke-linecap:round;}</style></defs><title>learn</title><g id="Layer_2" data-name="Layer 2"><g id="Layer_1-2" data-name="Layer 1"><path class="cls-1" d="M166.06,47.65l-67,35.71L32.43,48.13a3.92,3.92,0,0,1-.27-6.77L92.48,2.92a12.22,12.22,0,0,1,13.2,0l60.62,39A3.32,3.32,0,0,1,166.06,47.65Z"/><path class="cls-1" d="M128.92,41H68.62c-7.35,0-13.3,5.64-13.3,12.58h0v28.6h86.89V53.61h0C142.21,46.67,136.26,41,128.92,41Z"/><ellipse class="cls-1" cx="98.77" cy="82.21" rx="43.44" ry="11.14"/><line class="cls-2" x1="26.47" y1="44.98" x2="26.47" y2="61.62"/><circle class="cls-3" cx="26.47" cy="61.62" r="4.38"/><polygon class="cls-4" points="1.89 147.3 7.36 154.43 16.64 142.54 12.37 133.65 1.89 147.3"/><polygon class="cls-4" points="45.59 129.92 18.56 125.6 12.37 133.65 16.64 142.54 20.27 137.9 50.28 141.56 64.31 123.59 59.66 113.92 45.59 129.92"/><polygon class="cls-4" points="100.24 103.52 70.12 102.03 59.66 113.92 64.31 123.59 73.58 111.71 108.4 114.48 113.02 106.79 106.75 93.76 100.24 103.52"/><polygon class="cls-4" points="127.39 62.84 106.75 93.76 113.02 106.79 132.16 74.93 154.92 75.85 149.88 65.36 127.39 62.84"/><polygon class="cls-4" points="171.71 25.89 181.24 34.75 153.47 65.76 149.88 65.36 154.92 75.85 160.84 76.09 189.47 41.05 199.41 51.28 199.61 50.67 184.61 19.47 171.71 25.89"/><polygon class="cls-4" points="199.61 50.67 214.3 4.68 184.61 19.47 199.61 50.67"/><circle class="cls-5" cx="203.29" cy="18.92" r="1.69"/><line class="cls-6" x1="201.6" y1="23.4" x2="196.4" y2="34.19"/><line class="cls-6" x1="182.33" y1="44.8" x2="162.09" y2="67.54"/><path class="cls-6" d="M126,76.09c-.58,1.09-11,17.67-11,17.67"/><path class="cls-6" d="M77.46,108.67l21.62,1.86"/><line class="cls-6" x1="57.42" y1="125.37" x2="50.09" y2="133.65"/><line class="cls-6" x1="22.09" y1="134.43" x2="28.31" y2="135.39"/><circle class="cls-5" cx="32.59" cy="135.92" r="0.53"/><circle class="cls-5" cx="75.27" cy="108.64" r="0.53"/><circle class="cls-5" cx="127.9" cy="73.04" r="0.65"/></g></g></svg>