<svg xmlns="http://www.w3.org/2000/svg" viewBox="0 0 256.82 260.89"><defs><style>.cls-1{fill:#e52421;}.cls-1,.cls-2{stroke:#1d1d1b;stroke-width:4px;}.cls-1,.cls-2,.cls-4,.cls-5,.cls-9{stroke-miterlimit:10;}.cls-2{fill:#203c89;}.cls-3{fill:#c7292c;}.cls-4,.cls-9{fill:none;}.cls-4,.cls-5{stroke:#000;}.cls-4,.cls-5,.cls-9{stroke-width:2px;}.cls-5,.cls-6{fill:#fff;}.cls-7{fill:#1199d1;}.cls-8{fill:#434c5f;}.cls-9{stroke:#fff;stroke-linecap:round;}</style></defs><title>rb_confi</title><g id="Layer_2" data-name="Layer 2"><g id="Layer_1-2" data-name="Layer 1"><rect class="cls-1" x="2" y="2" width="124.76" height="256.89"/><rect class="cls-2" x="126.76" y="2" width="128.06" height="256.89"/><polygon class="cls-3" points="139.93 104.49 114.14 103.45 116.9 196.86 212.4 212.36 202.08 139.06 139.93 104.49"/><polygon class="cls-4" points="212.4 212.36 116.9 196.86 114.14 103.45 139.93 104.49 202.08 139.06 212.4 212.36"/><circle class="cls-5" cx="124.96" cy="74.4" r="19.81"/><path class="cls-6" d="M168.57,118.46l-28.93-14a8.89,8.89,0,0,0-5-1.47H117.28l-.31,0a8.92,8.92,0,0,0-5.35,1.45l-28.93,14a13.93,13.93,0,0,0-4.57,18.36l13.33,24.23a9.36,9.36,0,0,0,10.3,4.61l-6.47,75.19a.9.9,0,0,0,.9,1h16.87l6.49-51.44a7.94,7.94,0,0,1,15.7-.34L144,241.83h14.31a.9.9,0,0,0,.9-1l-8-75a9.36,9.36,0,0,0,8.61-4.83l13.33-24.23A13.93,13.93,0,0,0,168.57,118.46ZM98.68,141.1a13.91,13.91,0,0,1,4.57-18.35l2.28-1-2.37,27.53Zm53.9,0-3.37,6.13-2.7-25.15,1.5.67A13.92,13.92,0,0,1,152.58,141.1Z"/><path class="cls-7" d="M150,147.43h0l-2.7-25.15,1.5.67a13.92,13.92,0,0,1,5.83,8.11h0l1.66-18.71-15.87-7.67a8.88,8.88,0,0,0-5-1.46H118.06l-.31,0a8.92,8.92,0,0,0-5.35,1.45l-11.87,5.73,3,12.92c.18-.13.35-.27.54-.39l2.28-1-3.78,43.93,49.45.22Z"/><path class="cls-8" d="M96.43,241a.91.91,0,0,0,.9,1h16.88l6.48-51.44a7.94,7.94,0,0,1,15.71-.34L145.17,242h14.32a.9.9,0,0,0,.89-1l-8-74.94H102.88Z"/><path class="cls-4" d="M168.86,118.46l-28.93-14a8.89,8.89,0,0,0-5-1.47H117.57l-.31,0a8.92,8.92,0,0,0-5.35,1.45L83,118.46a13.93,13.93,0,0,0-4.57,18.36l13.33,24.23a9.36,9.36,0,0,0,10.3,4.61l-6.47,75.19a.9.9,0,0,0,.9,1h16.87l6.49-51.44a7.94,7.94,0,0,1,15.7-.34l8.78,51.78h14.32a.9.9,0,0,0,.89-1l-8-75a9.35,9.35,0,0,0,8.6-4.83l13.33-24.23A13.93,13.93,0,0,0,168.86,118.46ZM99,141.1a13.91,13.91,0,0,1,4.57-18.35l2.28-1-2.37,27.53Zm53.9,0-3.37,6.13-2.69-25.15,1.49.67A13.91,13.91,0,0,1,152.87,141.1Z"/><line class="cls-9" x1="197.6" y1="143.82" x2="204.09" y2="184.77"/><circle class="cls-6" cx="205.31" cy="190.44" r="1.22"/></g></g></svg>