<svg xmlns="http://www.w3.org/2000/svg" viewBox="0 0 257.03 260.89"><defs><style>.cls-1{fill:#e52421;}.cls-1,.cls-2,.cls-8{stroke:#1d1d1b;}.cls-1,.cls-2,.cls-4,.cls-5,.cls-8{stroke-miterlimit:10;}.cls-1,.cls-2{stroke-width:4px;}.cls-2{fill:#203c89;}.cls-3{fill:#c7292c;}.cls-4,.cls-7{fill:#fff;}.cls-4,.cls-5{stroke:#000;}.cls-4,.cls-5,.cls-6{stroke-width:2px;}.cls-5,.cls-6,.cls-8{fill:none;}.cls-6{stroke:#fff;stroke-linejoin:round;}.cls-6,.cls-8{stroke-linecap:round;}.cls-9{fill:#1d1d1b;}</style></defs><title>rb_compas</title><g id="Layer_2" data-name="Layer 2"><g id="Layer_1-2" data-name="Layer 1"><rect class="cls-1" x="2" y="2" width="124.76" height="256.89"/><rect class="cls-2" x="126.97" y="2" width="128.06" height="256.89"/><path class="cls-3" d="M184.57,65.7a17.44,17.44,0,0,0-24.68,0l-4,4L152,65.85a17.45,17.45,0,0,0-24.67,0h0a17.46,17.46,0,0,0,0,24.68L156,119.2l24.67-24.68-.13-.13,4-4A17.45,17.45,0,0,0,184.57,65.7Z"/><path class="cls-4" d="M37.92,95.7H54.7a5,5,0,0,1,5,5v37a5,5,0,0,1-5,5H37.92a0,0,0,0,1,0,0v-47A0,0,0,0,1,37.92,95.7Z"/><path class="cls-4" d="M163.22,148.73h-22c-4.94.81-10.93-3.1-14.2-4.39a167.5,167.5,0,0,1-23.83-11.88A167.5,167.5,0,0,0,127,144.34c3.27,1.29,9.26,5.2,14.2,4.39h-1.43l.71-.43c7.75-5,4-14.25,4-14.25S98.73,104.45,94,102.34a17.22,17.22,0,0,0-8.5-1.62H59.73v36.95l1.37.28-1.37-.1,3.28.49,9.68,2A24.12,24.12,0,0,1,76,143l18.17,12.85s11.2,9.55,13.2,10.8,7,1.52,7,1.52L163,170s12.25-.27,12.25-12C175.22,147.6,163.22,148.73,163.22,148.73Z"/><path class="cls-5" d="M184.57,65.7a17.44,17.44,0,0,0-24.68,0l-4,4L152,65.85a17.45,17.45,0,0,0-24.67,0h0a17.46,17.46,0,0,0,0,24.68L156,119.2l24.67-24.68-.13-.13,4-4A17.45,17.45,0,0,0,184.57,65.7Z"/><path class="cls-6" d="M143.62,67.53s-5.27-4-10.11,0S130,76.32,130,76.32"/><circle class="cls-7" cx="131.13" cy="81.45" r="1.31"/><circle class="cls-7" cx="133.77" cy="85.25" r="0.7"/><line class="cls-8" x1="169.17" y1="112.79" x2="163.91" y2="118.05"/><path class="cls-8" d="M156,63.48s5.66-11.18,23.74-5.92"/><path class="cls-8" d="M117.47,78.55s-.84,2.25,1.16,7.4,8.27,10,8.27,10"/><path class="cls-8" d="M192.38,73.44a20.36,20.36,0,0,1,1.15,6.7c-.23,2.77-2.77,8.08-5.08,10.85"/><circle class="cls-9" cx="118.28" cy="74.23" r="0.7"/><circle class="cls-9" cx="191" cy="69.93" r="0.6"/><circle class="cls-9" cx="144.25" cy="112.16" r="0.88"/></g></g></svg>