<svg xmlns="http://www.w3.org/2000/svg" viewBox="0 0 257.03 260.89"><defs><style>.cls-1{fill:#e52421;}.cls-1,.cls-2,.cls-3,.cls-4{stroke:#1d1d1b;}.cls-1,.cls-2,.cls-3,.cls-4,.cls-6,.cls-8{stroke-miterlimit:10;}.cls-1,.cls-2{stroke-width:4px;}.cls-2{fill:#203c89;}.cls-3,.cls-7{fill:#fff;}.cls-3{stroke-width:2px;}.cls-4,.cls-8{fill:none;}.cls-5{fill:#1d1d1b;}.cls-6{fill:#d87a3a;stroke:#000;stroke-width:3px;}.cls-8{stroke:#fff;stroke-linecap:round;}</style></defs><title>rb_learn</title><g id="Layer_2" data-name="Layer 2"><g id="Layer_1-2" data-name="Layer 1"><rect class="cls-1" x="2" y="2" width="124.76" height="256.89"/><rect class="cls-2" x="126.97" y="2" width="128.06" height="256.89"/><path class="cls-3" d="M189,104.59,122,140.3,55.38,105.07a3.92,3.92,0,0,1-.27-6.77l60.32-38.44a12.22,12.22,0,0,1,13.2,0l60.62,39A3.33,3.33,0,0,1,189,104.59Z"/><path class="cls-3" d="M151.87,98H91.56c-7.34,0-13.29,5.63-13.29,12.57h0v28.6h86.89v-28.6h0C165.16,103.61,159.21,98,151.87,98Z"/><ellipse class="cls-3" cx="121.72" cy="139.15" rx="43.44" ry="11.14"/><line class="cls-4" x1="49.42" y1="101.92" x2="49.42" y2="118.56"/><circle class="cls-5" cx="49.42" cy="118.56" r="4.38"/><polygon class="cls-6" points="24.84 204.24 30.31 211.37 39.59 199.49 35.32 190.6 24.84 204.24"/><polygon class="cls-6" points="68.54 186.86 41.51 182.54 35.32 190.6 39.59 199.49 43.22 194.84 73.23 198.51 87.26 180.53 82.61 170.86 68.54 186.86"/><polygon class="cls-6" points="123.19 160.46 93.06 158.97 82.61 170.86 87.26 180.53 96.53 168.65 131.35 171.42 135.97 163.74 129.7 150.7 123.19 160.46"/><polygon class="cls-6" points="150.34 119.78 129.7 150.7 135.97 163.74 155.11 131.87 177.87 132.79 172.83 122.3 150.34 119.78"/><polygon class="cls-6" points="194.66 82.83 204.18 91.69 176.42 122.7 172.83 122.3 177.87 132.79 183.79 133.03 212.42 98 222.36 108.22 222.55 107.62 207.56 76.41 194.66 82.83"/><polygon class="cls-6" points="222.55 107.62 237.25 61.62 207.56 76.41 222.55 107.62"/><circle class="cls-7" cx="226.24" cy="75.86" r="1.69"/><line class="cls-8" x1="224.55" y1="80.34" x2="219.35" y2="91.13"/><line class="cls-8" x1="205.28" y1="101.74" x2="185.04" y2="124.48"/><path class="cls-8" d="M149,133c-.58,1.09-11,17.67-11,17.67"/><path class="cls-8" d="M100.41,165.61,122,167.47"/><line class="cls-8" x1="80.36" y1="182.31" x2="73.04" y2="190.6"/><line class="cls-8" x1="45.04" y1="191.37" x2="51.26" y2="192.34"/><circle class="cls-7" cx="55.54" cy="192.87" r="0.53"/><circle class="cls-7" cx="98.22" cy="165.58" r="0.53"/><circle class="cls-7" cx="150.85" cy="129.98" r="0.65"/></g></g></svg>