<svg xmlns="http://www.w3.org/2000/svg" viewBox="0 0 256.82 260.89"><defs><style>.cls-1{fill:#e52421;}.cls-1,.cls-10,.cls-2,.cls-9{stroke:#1d1d1b;stroke-miterlimit:10;}.cls-1,.cls-2{stroke-width:4px;}.cls-2{fill:#203c89;}.cls-3{fill:#063;}.cls-4{fill:#3aaa35;}.cls-5{fill:#95c11f;}.cls-6{fill:#e94e1b;}.cls-7{fill:#e6332a;}.cls-8{fill:#be1622;}.cls-11,.cls-9{fill:none;}.cls-10,.cls-11,.cls-9{stroke-width:2px;}.cls-10,.cls-12{fill:#fff;}.cls-11{stroke:#fff;stroke-linecap:round;stroke-linejoin:round;}</style></defs><title>rb_stress</title><g id="Layer_2" data-name="Layer 2"><g id="Layer_1-2" data-name="Layer 1"><rect class="cls-1" x="2" y="2" width="124.76" height="256.89"/><rect class="cls-2" x="126.76" y="2" width="128.06" height="256.89"/><path class="cls-3" d="M39.54,95.85v37.62a68.53,68.53,0,0,1,17.62-18.18V77.68A68.35,68.35,0,0,0,39.54,95.85Z"/><path class="cls-4" d="M57.16,77.68v37.61a104.61,104.61,0,0,1,34.8-16V61.71A104.41,104.41,0,0,0,57.16,77.68Z"/><path class="cls-5" d="M125.78,57.45A133.76,133.76,0,0,0,92,61.71V99.32a133.7,133.7,0,0,1,33.82-4.26h1V57.46Z"/><path class="cls-6" d="M126.76,57.46V95.07a133,133,0,0,1,34.8,4.78V62.23A133.39,133.39,0,0,0,126.76,57.46Z"/><path class="cls-7" d="M161.56,62.23V99.85a101.78,101.78,0,0,1,34.79,16.9V79.13C186.89,71.82,175,66,161.56,62.23Z"/><path class="cls-8" d="M196.35,79.13v37.62a64.83,64.83,0,0,1,17.62,20V99.12A64.87,64.87,0,0,0,196.35,79.13Z"/><path class="cls-9" d="M214,99.12c-13.28-24.33-47.75-41.67-88.19-41.67-38.59,0-71.75,15.8-86.24,38.4v37.62C54,110.87,87.18,95.06,125.78,95.06c40.46,0,74.93,17.36,88.19,41.71Z"/><path class="cls-10" d="M120.64,179.79h12.23a3.74,3.74,0,0,0,3.74-3.93L130.5,51.72a3.75,3.75,0,0,0-3.74-3.56h0A3.73,3.73,0,0,0,123,51.72L116.9,175.86A3.74,3.74,0,0,0,120.64,179.79Z"/><circle cx="126.76" cy="179.79" r="16.21"/><path class="cls-11" d="M43.8,97.11s10.85-13.28,23-19.43"/><circle class="cls-12" cx="72.25" cy="74.7" r="1.49"/><circle class="cls-12" cx="77.91" cy="72.34" r="1.49"/></g></g></svg>