<svg xmlns="http://www.w3.org/2000/svg" viewBox="0 0 176.43 148.84"><defs><style>.cls-1{fill:#063;}.cls-2{fill:#3aaa35;}.cls-3{fill:#95c11f;}.cls-4{fill:#e94e1b;}.cls-5{fill:#e6332a;}.cls-6{fill:#be1622;}.cls-7,.cls-9{fill:none;}.cls-7,.cls-8{stroke:#1d1d1b;stroke-miterlimit:10;}.cls-7,.cls-8,.cls-9{stroke-width:2px;}.cls-10,.cls-8{fill:#fff;}.cls-9{stroke:#fff;stroke-linecap:round;stroke-linejoin:round;}</style></defs><title>stress</title><g id="Layer_2" data-name="Layer 2"><g id="Layer_1-2" data-name="Layer 1"><path class="cls-1" d="M1,48.69V86.31A68.34,68.34,0,0,1,18.62,68.14V30.52A68.34,68.34,0,0,0,1,48.69Z"/><path class="cls-2" d="M18.62,30.52V68.14a104.37,104.37,0,0,1,34.79-16V14.55A104.65,104.65,0,0,0,18.62,30.52Z"/><path class="cls-3" d="M87.24,10.29a133.78,133.78,0,0,0-33.83,4.26V52.16A133.78,133.78,0,0,1,87.24,47.9h1V10.3Z"/><path class="cls-4" d="M88.21,10.3V47.91A132.9,132.9,0,0,1,123,52.69V15.08A132.9,132.9,0,0,0,88.21,10.3Z"/><path class="cls-5" d="M123,15.08V52.69a101.83,101.83,0,0,1,34.8,16.9V32A102,102,0,0,0,123,15.08Z"/><path class="cls-6" d="M157.81,32V69.59a65.09,65.09,0,0,1,17.62,20V52A64.91,64.91,0,0,0,157.81,32Z"/><path class="cls-7" d="M175.43,52c-13.28-24.34-47.75-41.68-88.19-41.68-38.6,0-71.76,15.8-86.24,38.4V86.31C15.48,63.71,48.64,47.9,87.24,47.9c40.45,0,74.92,17.36,88.19,41.71Z"/><path class="cls-8" d="M82.1,132.63H94.33a3.74,3.74,0,0,0,3.74-3.93L92,4.56A3.74,3.74,0,0,0,88.21,1h0a3.75,3.75,0,0,0-3.74,3.56L78.36,128.7A3.74,3.74,0,0,0,82.1,132.63Z"/><circle cx="88.21" cy="132.63" r="16.21"/><path class="cls-9" d="M5.26,50s10.84-13.28,23-19.43"/><circle class="cls-10" cx="33.71" cy="27.54" r="1.49"/><circle class="cls-10" cx="39.36" cy="25.18" r="1.49"/></g></g></svg>