<svg xmlns="http://www.w3.org/2000/svg" viewBox="0 0 632.68 273.96"><defs><style>.cls-1{fill:#ffdc4a;}.cls-2{fill:#f18842;}.cls-3{fill:#fff;}.cls-4{fill:#1199d1;}.cls-5{fill:#026666;}.cls-6{fill:#c7292c;}.cls-7{fill:#991914;}.cls-8{fill:#62a89a;}.cls-9{fill:#d87a3a;}.cls-10{fill:#64350d;}.cls-11{fill:none;stroke:#fff;stroke-linecap:round;stroke-miterlimit:10;stroke-width:2px;}</style></defs><title>svg_story_1</title><g id="Layer_2" data-name="Layer 2"><g id="Layer_1-2" data-name="Layer 1"><path class="cls-1" d="M495.7,0H259.09a137,137,0,0,1,137,137h0a137,137,0,0,1-137,137H495.7a137,137,0,0,0,137-137h0A137,137,0,0,0,495.7,0Z"/><rect class="cls-2" y="12.61" width="383.69" height="248.75" rx="124.38" ry="124.38"/><circle class="cls-3" cx="305.22" cy="205.08" r="15.42"/><circle class="cls-3" cx="273.65" cy="239.75" r="8.78"/><path class="cls-3" d="M383.32,112.5a23.86,23.86,0,0,0-17.32-12,24.23,24.23,0,0,0-30.89-5.94A33.94,33.94,0,0,0,328.68,92c0-.44,0-.89,0-1.34a25,25,0,1,0-43.91,16.25,22.35,22.35,0,0,0-16.52,30.25A20.73,20.73,0,1,0,291,168.55a29,29,0,0,0,29.28,7.06,27.17,27.17,0,0,0,36.29-12,17.62,17.62,0,0,0,13.74-11.58,21.11,21.11,0,1,0,13-39.56Z"/><path class="cls-4" d="M156.69,85.33,138.35,98.18S128.87,85.1,112,81.89,78.87,88.7,73.54,95.74s-7.23,15.67,4.81,16,35.54-11.85,55.86,9.09,6.94,58.75-7.32,69.1-63.81,26.45-87.33-9.56c-13.53-20.71-5.94-45.26-5.94-45.26l46.15,7.35s-16.37,26.84,13.94,28,33.9-34.56,8.86-39.08S56.73,132,45.38,120.7,29.73,80.35,62,59.2,144,56,156.69,85.33Z"/><path class="cls-5" d="M133.65,120.7c-20.33-20.93-43.82-8.74-55.86-9.08s-10.14-9-4.81-16c0,0-16.93,21.52-1.84,33,9.1.51,19.54.59,30.86,2.63,25,4.52,21.46,40.22-8.85,39.08-9.47-.36-14.38-3.22-16.66-7,0,0-10.57,28.18,10.42,39,16.81-1,32.39-7.46,39.41-12.55C140.59,179.46,154,141.63,133.65,120.7Z"/><path class="cls-6" d="M171.7,58.71a83,83,0,0,1,28.82-6.08c15.58-.23,28-1.39,28-1.39s-7.11,3.5-7.44,18.07-3.17,41.74,4.64,41.88,18.15-.88,18.15-.88,4.29,24.22,1.26,25.93l-21.07,1s-1,34.86,6.25,40.41S256,176.42,256,176.42l1.07,21.93s-48.83,10.54-64-4.33S171.7,58.71,171.7,58.71Z"/><path class="cls-7" d="M200.2,59.3c1.63,2,4.45,49.46,6.56,50.83,1,.66,9.5.59,18.11.35-6.77-2-4.13-27.71-3.82-41.74.34-14.57,7.44-18.07,7.44-18.07s-12.42,1.16-28,1.39a83,83,0,0,0-28.81,6.08s0,.47.07,1.33C181.88,57.93,198.91,57.74,200.2,59.3Z"/><path class="cls-7" d="M230.28,177.1C223,171.55,224,136.69,224,136.69l21.07-1c.93-.53,1.17-3.16,1.06-6.57l-44.51,2.17s-5.75,50.27,24.49,51.65c13.75.63,23.39-2.84,29.84-6.8l0-.27S237.52,182.64,230.28,177.1Z"/><path class="cls-8" d="M474.9,112.52c8.08.65,1.19,7.11,3.12,18.74,1.39,8.32,10.94,5.08,16.26,2.56,6.87-11.11-3.53-37.91-24.38-34.43-25.89,4.31-27.75,29-27.75,29s-8.89-10.52-12.74-17.85a9.91,9.91,0,0,0-3.4-3.81l-15.29,2.55c7,9.69,19.47,90.7,19.82,92.8.27,1.61,23.56-3.15,34.54-5.48-.53-14.46-9.36-57.5-9.46-67.91C455.51,116.36,466.83,111.87,474.9,112.52Z"/><path class="cls-5" d="M466.29,129.85c8.8-2.55.53,9.69,19.9,8.63a9.66,9.66,0,0,0,8.09-4.66c-5.32,2.52-14.87,5.76-16.26-2.56-1.93-11.63,5-18.09-3.12-18.74s-19.39,3.84-19.28,16.14c.1,10.41,8.93,53.45,9.46,67.91,3.39-.72,5.61-1.21,5.61-1.21S457.48,132.41,466.29,129.85Z"/><path class="cls-5" d="M442.15,128.36l-5.54-23.43L426,106.7a9.91,9.91,0,0,1,3.4,3.81C433.26,117.84,442.15,128.36,442.15,128.36Z"/><path class="cls-9" d="M523.59,94.15c-9.13.14-13.23,2.09-13.23,2.09,1.48,10.24,22.2,59.79,21.22,71.8a13.52,13.52,0,0,1-.35,2c1.76-4.22,4-9.31,6.55-14.43C542.49,146.16,529.93,110.71,523.59,94.15Z"/><path class="cls-9" d="M520.26,236.48c11.69-2.39,62.08-118,66-127.12,2.51-5.78.2-8.18-1.85-9.17a40.49,40.49,0,0,0-5.83-1.42,31.39,31.39,0,0,0-15.6,1.57s-4.38,15.25-8.69,27.69c-1,10.93-27.15,52.31-27.15,52.31h0c-8.85,18.72-28,48.59-28.51,51.08-.24,1.21,2.09,3.44,5.74,5.48A47.57,47.57,0,0,0,520.26,236.48Z"/><path class="cls-10" d="M527.19,180.34a59.31,59.31,0,0,0,4-10.31C528.72,176.07,527.19,180.34,527.19,180.34Z"/><path class="cls-10" d="M554.34,128c-3.19,9.19-6.34,16.84-7.66,15.66-3.11-2.8-2.84-46.21-2.84-46.21s-4.72-2.85-16.5-3.29c-1.33,0-2.58,0-3.75,0,6.34,16.56,18.9,52,14.19,61.45-2.55,5.12-4.79,10.21-6.55,14.43a59.31,59.31,0,0,1-4,10.31h0S553.32,139,554.34,128Z"/><path class="cls-10" d="M527.31,240c12-4.92,65.59-135.87,65.59-135.87a35.65,35.65,0,0,0-8.44-3.93c2,1,4.36,3.39,1.85,9.17-4,9.14-54.36,124.73-66,127.12a47.57,47.57,0,0,1-15.84.42C510.39,240.23,519.88,243,527.31,240Z"/><path class="cls-11" d="M128.24,65.73S99.12,49.56,76.06,57.84"/><line class="cls-11" x1="174.89" y1="63.57" x2="180.55" y2="122.09"/><path class="cls-11" d="M418.39,112.46s7,12.32,7.62,19.63"/><path class="cls-11" d="M481.45,130.06s5.55,5.83,9.33,2"/><line class="cls-11" x1="514.47" y1="100.19" x2="529.21" y2="143.93"/><path class="cls-11" d="M574.46,102.34s-6.81-1.77-9.08,6.3-7.06,23.08-7.06,23.08"/><path class="cls-11" d="M38.28,142.47S26,178,60.61,192.6"/><circle class="cls-3" cx="66.39" cy="194.87" r="0.95"/><circle class="cls-3" cx="133.13" cy="69.18" r="0.95"/><circle class="cls-3" cx="68.5" cy="61.42" r="0.82"/><circle class="cls-3" cx="181.6" cy="127.66" r="1.06"/><circle class="cls-3" cx="251.26" cy="195.4" r="0.57"/><circle class="cls-3" cx="240.11" cy="114.11" r="1.36"/><circle class="cls-3" cx="427.09" cy="138.35" r="1.08"/><circle class="cls-3" cx="494.05" cy="128.93" r="0.74"/><circle class="cls-3" cx="530.72" cy="148.25" r="1"/><circle class="cls-3" cx="556.59" cy="135.8" r="1.03"/><circle class="cls-3" cx="502.04" cy="230.26" r="0.69"/><circle class="cls-3" cx="503.77" cy="227.98" r="0.64"/></g></g></svg>