<svg xmlns="http://www.w3.org/2000/svg" viewBox="0 0 258.06 261"><defs><style>.cls-1,.cls-6,.cls-8{fill:#fff;}.cls-1,.cls-2,.cls-3{stroke:#1d1d1b;stroke-width:4px;}.cls-1,.cls-11,.cls-2,.cls-3,.cls-5,.cls-6{stroke-miterlimit:10;}.cls-2{fill:#203c89;}.cls-3{fill:#e52421;}.cls-4{fill:#c7292c;}.cls-11,.cls-5{fill:none;}.cls-5,.cls-6{stroke:#000;}.cls-11,.cls-5,.cls-6{stroke-width:2px;}.cls-7{fill:#f4e72d;}.cls-9{fill:#1199d1;}.cls-10{fill:#434c5f;}.cls-11{stroke:#fff;stroke-linecap:round;}</style></defs><title>sw_confi</title><g id="Layer_2" data-name="Layer 2"><g id="Layer_1-2" data-name="Layer 1"><path class="cls-1" d="M25.69,2H255.93a0,0,0,0,1,0,0V230.69A28.31,28.31,0,0,1,227.62,259H2.13a0,0,0,0,1,0,0V25.56A23.56,23.56,0,0,1,25.69,2Z"/><polygon class="cls-2" points="203.93 2 241.93 17.76 252.93 48.76 255.93 2 203.93 2"/><polygon class="cls-3" points="54.13 259 16.13 243.24 5.13 212.24 2.13 259 54.13 259"/><polygon class="cls-4" points="144.43 74.53 114.44 73.32 117.65 181.93 228.69 199.95 216.69 114.72 144.43 74.53"/><polygon class="cls-5" points="228.69 199.95 117.65 181.93 114.44 73.32 144.43 74.53 216.69 114.72 228.69 199.95"/><circle class="cls-6" cx="127.02" cy="39.54" r="23.03"/><path class="cls-6" d="M125.33,30.51a22.6,22.6,0,0,1-21.1,8.26,23.47,23.47,0,0,0-.24,3.15,23,23,0,0,0,46.06,0c0-.17,0-.34,0-.52a22.64,22.64,0,0,1-4.84.52A23,23,0,0,1,125.33,30.51Z"/><path class="cls-7" d="M125.22,29.44a22.89,22.89,0,0,1-3.15-11.11A23,23,0,0,0,104.12,37.7a22.73,22.73,0,0,0,21.1-8.26Z"/><path class="cls-7" d="M130.14,18.07a22.93,22.93,0,0,1-4.92,11.37,23,23,0,0,0,19.86,11.41,23.38,23.38,0,0,0,4.84-.52A23,23,0,0,0,130.14,18.07Z"/><path class="cls-7" d="M122.07,18.33a22.89,22.89,0,0,0,3.15,11.11,22.93,22.93,0,0,0,4.92-11.37,23,23,0,0,0-3.23-.25A23.37,23.37,0,0,0,122.07,18.33Z"/><path class="cls-8" d="M177.72,90.77,144.09,74.53a10.38,10.38,0,0,0-5.77-1.71H118.1l-.37,0a10.38,10.38,0,0,0-6.22,1.69L77.88,90.77a16.2,16.2,0,0,0-5.32,21.35l15.5,28.18a10.91,10.91,0,0,0,12,5.36l-7.53,87.42a1.05,1.05,0,0,0,1,1.14h19.62l7.53-59.81A9.24,9.24,0,0,1,139,174l10.2,60.2h16.65a1.05,1.05,0,0,0,1-1.16l-9.33-87.15a10.88,10.88,0,0,0,10-5.61L183,112.12A16.2,16.2,0,0,0,177.72,90.77ZM96.47,117.1a16.17,16.17,0,0,1,5.31-21.34l2.65-1.19-2.75,32Zm62.66,0-3.91,7.13L152.08,95l1.74.78A16.17,16.17,0,0,1,159.13,117.1Z"/><path class="cls-9" d="M156.12,124.46h0L153,95.22l1.74.77a16.13,16.13,0,0,1,6.77,9.43h0l1.93-21.75L145,74.76a10.48,10.48,0,0,0-5.78-1.7H119l-.36,0a10.42,10.42,0,0,0-6.22,1.68l-13.8,6.67,3.44,15c.21-.15.41-.31.63-.46l2.65-1.18-4.4,51.08,57.5.26Z"/><path class="cls-10" d="M93.86,233.3a1,1,0,0,0,1,1.14h19.62l7.54-59.82a9.23,9.23,0,0,1,18.26-.38l10.2,60.2h16.65a1,1,0,0,0,1-1.16l-9.33-87.13H101.35Z"/><path class="cls-5" d="M178.06,90.77,144.43,74.53a10.39,10.39,0,0,0-5.78-1.71H118.43l-.36,0a10.36,10.36,0,0,0-6.22,1.69L78.22,90.77a16.19,16.19,0,0,0-5.32,21.35L88.4,140.3a10.9,10.9,0,0,0,12,5.36l-7.52,87.42a1.05,1.05,0,0,0,1.05,1.14h19.62l7.53-59.81a9.24,9.24,0,0,1,18.27-.39l10.2,60.2h16.65a1.05,1.05,0,0,0,1-1.16l-9.33-87.15a10.88,10.88,0,0,0,10-5.61l15.5-28.18A16.2,16.2,0,0,0,178.06,90.77ZM96.8,117.1a16.19,16.19,0,0,1,5.32-21.34l2.65-1.19-2.75,32Zm62.67,0-3.92,7.13L152.42,95l1.74.78A16.18,16.18,0,0,1,159.47,117.1Z"/><line class="cls-11" x1="211.48" y1="120.26" x2="219.03" y2="167.87"/><circle class="cls-8" cx="220.45" cy="174.47" r="1.42"/></g></g></svg>