<svg xmlns="http://www.w3.org/2000/svg" viewBox="0 0 258.06 261"><defs><style>.cls-1,.cls-5,.cls-8{fill:#fff;}.cls-1,.cls-2,.cls-3,.cls-9{stroke:#1d1d1b;}.cls-1,.cls-2,.cls-3,.cls-5,.cls-6,.cls-9{stroke-miterlimit:10;}.cls-1,.cls-2,.cls-3{stroke-width:4px;}.cls-2{fill:#203c89;}.cls-3{fill:#e52421;}.cls-4{fill:#c7292c;}.cls-5,.cls-6{stroke:#000;}.cls-5,.cls-6,.cls-7{stroke-width:2px;}.cls-6,.cls-7,.cls-9{fill:none;}.cls-7{stroke:#fff;stroke-linejoin:round;}.cls-7,.cls-9{stroke-linecap:round;}.cls-10{fill:#1d1d1b;}</style></defs><title>sw_compas</title><g id="Layer_2" data-name="Layer 2"><g id="Layer_1-2" data-name="Layer 1"><path class="cls-1" d="M25.69,2H255.93a0,0,0,0,1,0,0V230.69A28.31,28.31,0,0,1,227.62,259H2.13a0,0,0,0,1,0,0V25.56A23.56,23.56,0,0,1,25.69,2Z"/><polygon class="cls-2" points="203.93 2 241.93 17.76 252.93 48.76 255.93 2 203.93 2"/><polygon class="cls-3" points="54.13 259 16.13 243.24 5.13 212.24 2.13 259 54.13 259"/><path class="cls-4" d="M212.24,50.9a24.09,24.09,0,0,0-34.06,0l-5.54,5.54-5.33-5.33a24.09,24.09,0,0,0-34.06,0h0a24.09,24.09,0,0,0,0,34.06l39.57,39.57,34.06-34.06-.18-.18L212.24,85A24.09,24.09,0,0,0,212.24,50.9Z"/><path class="cls-5" d="M9.85,92.31H34.92a5,5,0,0,1,5,5v54.82a5,5,0,0,1-5,5H9.85a0,0,0,0,1,0,0V92.31A0,0,0,0,1,9.85,92.31Z"/><path class="cls-5" d="M182.77,165.5H152.44c-6.81,1.12-15.08-4.28-19.59-6.06A230.34,230.34,0,0,1,100,143a230.34,230.34,0,0,0,32.89,16.4c4.51,1.78,12.78,7.18,19.59,6.06h-2l1-.6c10.69-6.9,5.52-19.67,5.52-19.67s-63.2-40.85-69.76-43.76a23.78,23.78,0,0,0-11.73-2.23H39.94v51l1.9.39-1.9-.15,4.54.68,13.35,2.7a33.19,33.19,0,0,1,4.53,3.69l25.08,17.73s15.46,13.19,18.22,14.91,9.66,2.1,9.66,2.1l67.11,2.56s16.9-.37,16.91-16.59C199.34,163.94,182.77,165.5,182.77,165.5Z"/><path class="cls-6" d="M212.24,50.9a24.09,24.09,0,0,0-34.06,0l-5.54,5.54-5.33-5.33a24.09,24.09,0,0,0-34.06,0h0a24.09,24.09,0,0,0,0,34.06l39.57,39.57,34.06-34.06-.18-.18L212.24,85A24.09,24.09,0,0,0,212.24,50.9Z"/><path class="cls-7" d="M155.73,53.43s-7.28-5.47-14,0-4.86,12.14-4.86,12.14"/><circle class="cls-8" cx="138.49" cy="72.64" r="1.8"/><circle class="cls-8" cx="142.13" cy="77.88" r="0.97"/><line class="cls-9" x1="190.99" y1="115.89" x2="183.73" y2="123.15"/><path class="cls-9" d="M172.74,47.84s7.81-15.42,32.76-8.16"/><path class="cls-9" d="M119.64,68.64s-1.16,3.1,1.6,10.21,11.41,13.8,11.41,13.8"/><path class="cls-9" d="M223,61.59s1.91,5.43,1.59,9.25-3.82,11.14-7,15"/><circle class="cls-10" cx="120.76" cy="62.68" r="0.96"/><circle class="cls-10" cx="221.12" cy="56.75" r="0.83"/><circle class="cls-10" cx="156.59" cy="115.03" r="1.22"/></g></g></svg>