<svg xmlns="http://www.w3.org/2000/svg" viewBox="0 0 258.06 261"><defs><style>.cls-1,.cls-4,.cls-8{fill:#fff;}.cls-1,.cls-2,.cls-3,.cls-4,.cls-5{stroke:#1d1d1b;}.cls-1,.cls-2,.cls-3,.cls-4,.cls-5,.cls-7,.cls-9{stroke-miterlimit:10;}.cls-1,.cls-2,.cls-3{stroke-width:4px;}.cls-2{fill:#203c89;}.cls-3{fill:#e52421;}.cls-4{stroke-width:2px;}.cls-5,.cls-9{fill:none;}.cls-6{fill:#1d1d1b;}.cls-7{fill:#d87a3a;stroke:#000;stroke-width:3px;}.cls-9{stroke:#fff;stroke-linecap:round;}</style></defs><title>sw_learn</title><g id="Layer_2" data-name="Layer 2"><g id="Layer_1-2" data-name="Layer 1"><path class="cls-1" d="M25.69,2H255.93a0,0,0,0,1,0,0V230.69A28.31,28.31,0,0,1,227.62,259H2.13a0,0,0,0,1,0,0V25.56A23.56,23.56,0,0,1,25.69,2Z"/><polygon class="cls-2" points="203.93 2 241.93 17.76 252.93 48.76 255.93 2 203.93 2"/><polygon class="cls-3" points="54.13 259 16.13 243.24 5.13 212.24 2.13 259 54.13 259"/><path class="cls-4" d="M193.17,95.6l-71.49,38.12L50.54,96.12a4.18,4.18,0,0,1-.29-7.23l64.38-41a13.06,13.06,0,0,1,14.09,0l64.69,41.6A3.54,3.54,0,0,1,193.17,95.6Z"/><path class="cls-4" d="M153.52,88.54H89.16C81.32,88.54,75,94.55,75,102h0v30.52h92.74V102h0C167.71,94.55,161.35,88.54,153.52,88.54Z"/><ellipse class="cls-4" cx="121.34" cy="132.49" rx="46.37" ry="11.89"/><line class="cls-5" x1="44.17" y1="92.76" x2="44.17" y2="110.52"/><circle class="cls-6" cx="44.17" cy="110.52" r="4.67"/><polygon class="cls-7" points="17.95 201.96 23.79 209.56 33.69 196.88 29.13 187.4 17.95 201.96"/><polygon class="cls-7" points="64.58 183.41 35.73 178.79 29.13 187.4 33.69 196.88 37.56 191.92 69.59 195.84 84.56 176.65 79.6 166.33 64.58 183.41"/><polygon class="cls-7" points="122.91 155.23 90.76 153.64 79.6 166.33 84.56 176.65 94.45 163.97 131.62 166.93 136.55 158.73 129.86 144.82 122.91 155.23"/><polygon class="cls-7" points="151.89 111.81 129.86 144.82 136.55 158.73 156.98 124.72 181.28 125.7 175.9 114.5 151.89 111.81"/><polygon class="cls-7" points="199.19 72.38 209.36 81.84 179.72 114.94 175.9 114.5 181.28 125.7 187.59 125.95 218.14 88.56 228.76 99.48 228.96 98.83 212.96 65.53 199.19 72.38"/><polygon class="cls-7" points="228.96 98.83 244.65 49.74 212.96 65.53 228.96 98.83"/><circle class="cls-8" cx="232.9" cy="64.94" r="1.8"/><line class="cls-9" x1="231.09" y1="69.72" x2="225.54" y2="81.24"/><line class="cls-9" x1="210.52" y1="92.56" x2="188.92" y2="116.83"/><path class="cls-9" d="M150.45,126c-.62,1.17-11.73,18.87-11.73,18.87"/><path class="cls-9" d="M98.6,160.73l23.08,2"/><line class="cls-9" x1="77.21" y1="178.55" x2="69.39" y2="187.4"/><line class="cls-9" x1="39.5" y1="188.22" x2="46.14" y2="189.25"/><circle class="cls-8" cx="50.71" cy="189.82" r="0.57"/><circle class="cls-8" cx="96.26" cy="160.7" r="0.57"/><circle class="cls-8" cx="152.43" cy="122.7" r="0.69"/></g></g></svg>