<svg xmlns="http://www.w3.org/2000/svg" viewBox="0 0 258.06 261"><defs><style>.cls-1,.cls-11,.cls-9{fill:#fff;}.cls-1,.cls-12,.cls-13,.cls-8,.cls-9{stroke:#1d1d1b;stroke-miterlimit:10;}.cls-1,.cls-12,.cls-13{stroke-width:4px;}.cls-2{fill:#063;}.cls-3{fill:#3aaa35;}.cls-4{fill:#95c11f;}.cls-5{fill:#e94e1b;}.cls-6{fill:#e6332a;}.cls-7{fill:#be1622;}.cls-10,.cls-8{fill:none;}.cls-10,.cls-8,.cls-9{stroke-width:2px;}.cls-10{stroke:#fff;stroke-linecap:round;stroke-linejoin:round;}.cls-12{fill:#203c89;}.cls-13{fill:#e52421;}</style></defs><title>sw_stress</title><g id="Layer_2" data-name="Layer 2"><g id="Layer_1-2" data-name="Layer 1"><path class="cls-1" d="M25.69,2H255.93a0,0,0,0,1,0,0V230.69A28.31,28.31,0,0,1,227.62,259H2.13a0,0,0,0,1,0,0V25.56A23.56,23.56,0,0,1,25.69,2Z"/><path class="cls-2" d="M17,92.64v48.12a87.51,87.51,0,0,1,22.53-23.25V69.41A87.6,87.6,0,0,0,17,92.64Z"/><path class="cls-3" d="M39.53,69.41v48.1C51.8,108.6,67,101.56,84,97.09V49C67,53.46,51.81,60.5,39.53,69.41Z"/><path class="cls-4" d="M127.3,43.53A170.9,170.9,0,0,0,84,49v48.1a170.84,170.84,0,0,1,43.26-5.46l1.24,0V43.55Z"/><path class="cls-5" d="M128.54,43.55v48.1a169.75,169.75,0,0,1,44.51,6.11V49.65A170.18,170.18,0,0,0,128.54,43.55Z"/><path class="cls-6" d="M173.05,49.65V97.76c17.21,4.81,32.4,12.27,44.51,21.62V71.26C205.45,61.92,190.26,54.47,173.05,49.65Z"/><path class="cls-7" d="M217.56,71.26v48.12c9.65,7.45,17.36,16.11,22.53,25.6V96.83C234.91,87.35,227.21,78.71,217.56,71.26Z"/><path class="cls-8" d="M240.09,96.83c-17-31.12-61.07-53.3-112.79-53.3C77.93,43.53,35.52,63.74,17,92.64v48.12c18.52-28.91,60.92-49.13,110.3-49.13,51.74,0,95.82,22.21,112.79,53.35Z"/><path class="cls-9" d="M120.72,200h15.64a4.8,4.8,0,0,0,4.79-5L133.33,36.2a4.79,4.79,0,0,0-4.79-4.55h0a4.78,4.78,0,0,0-4.78,4.55L115.94,195A4.78,4.78,0,0,0,120.72,200Z"/><circle cx="128.54" cy="200" r="20.73"/><path class="cls-10" d="M22.44,94.26s13.88-17,29.41-24.85"/><circle class="cls-11" cx="58.83" cy="65.59" r="1.91"/><circle class="cls-11" cx="66.06" cy="62.58" r="1.91"/><polygon class="cls-12" points="203.93 2 241.93 17.76 252.93 48.76 255.93 2 203.93 2"/><polygon class="cls-13" points="54.13 259 16.13 243.24 5.13 212.24 2.13 259 54.13 259"/></g></g></svg>